<?xml version="1.0" encoding="UTF-8" standalone="no"?>
<!DOCTYPE svg PUBLIC "-//W3C//DTD SVG 1.1//EN"
 "http://www.w3.org/Graphics/SVG/1.1/DTD/svg11.dtd">
<!-- Generated by graphviz version 2.40.1 (20161225.0304)
 -->
<!-- Title: controllers_diagram Pages: 1 -->
<svg width="532pt" height="426pt"
 viewBox="0.00 0.00 532.00 426.00" xmlns="http://www.w3.org/2000/svg" xmlns:xlink="http://www.w3.org/1999/xlink">
<g id="graph0" class="graph" transform="scale(1 1) rotate(0) translate(4 422)">
<title>controllers_diagram</title>
<polygon fill="transparent" stroke="transparent" points="-4,4 -4,-422 528,-422 528,4 -4,4"/>
<!-- _diagram_info -->
<g id="node1" class="node">
<title>_diagram_info</title>
<text text-anchor="start" x="92" y="-217.6" font-family="Times,serif" font-size="13.00" fill="#000000">Controllers diagram</text>
<text text-anchor="start" x="92" y="-203.6" font-family="Times,serif" font-size="13.00" fill="#000000">Date: Nov 29 2018 &#45; 12:01</text>
<text text-anchor="start" x="92" y="-189.6" font-family="Times,serif" font-size="13.00" fill="#000000">Migration version: 20181129032651</text>
<text text-anchor="start" x="92" y="-175.6" font-family="Times,serif" font-size="13.00" fill="#000000">Generated by RailRoady 1.5.3</text>
<text text-anchor="start" x="92" y="-161.6" font-family="Times,serif" font-size="13.00" fill="#000000">http://railroady.prestonlee.com</text>
</g>
<!-- HomesController -->
<g id="node2" class="node">
<title>HomesController</title>
<path fill="none" stroke="#000000" d="M138,-28.5C138,-28.5 225,-28.5 225,-28.5 231,-28.5 237,-34.5 237,-40.5 237,-40.5 237,-109.5 237,-109.5 237,-115.5 231,-121.5 225,-121.5 225,-121.5 138,-121.5 138,-121.5 132,-121.5 126,-115.5 126,-109.5 126,-109.5 126,-40.5 126,-40.5 126,-34.5 132,-28.5 138,-28.5"/>
<text text-anchor="middle" x="181.5" y="-106.3" font-family="Times,serif" font-size="14.00" fill="#000000">HomesController</text>
<polyline fill="none" stroke="#000000" points="126,-98.5 237,-98.5 "/>
<text text-anchor="start" x="134" y="-83.3" font-family="Times,serif" font-size="14.00" fill="#000000">home</text>
<polyline fill="none" stroke="#000000" points="126,-75.5 237,-75.5 "/>
<polyline fill="none" stroke="#000000" points="126,-51.5 237,-51.5 "/>
<text text-anchor="start" x="134" y="-36.3" font-family="Times,serif" font-size="14.00" fill="#000000">_layout</text>
</g>
<!-- CustomersController -->
<g id="node3" class="node">
<title>CustomersController</title>
<path fill="none" stroke="#000000" d="M278,-266.5C278,-266.5 385,-266.5 385,-266.5 391,-266.5 397,-272.5 397,-278.5 397,-278.5 397,-377.5 397,-377.5 397,-383.5 391,-389.5 385,-389.5 385,-389.5 278,-389.5 278,-389.5 272,-389.5 266,-383.5 266,-377.5 266,-377.5 266,-278.5 266,-278.5 266,-272.5 272,-266.5 278,-266.5"/>
<text text-anchor="middle" x="331.5" y="-374.3" font-family="Times,serif" font-size="14.00" fill="#000000">CustomersController</text>
<polyline fill="none" stroke="#000000" points="266,-366.5 397,-366.5 "/>
<text text-anchor="start" x="274" y="-351.3" font-family="Times,serif" font-size="14.00" fill="#000000">index</text>
<text text-anchor="start" x="274" y="-336.3" font-family="Times,serif" font-size="14.00" fill="#000000">show</text>
<polyline fill="none" stroke="#000000" points="266,-328.5 397,-328.5 "/>
<polyline fill="none" stroke="#000000" points="266,-304.5 397,-304.5 "/>
<text text-anchor="start" x="274" y="-289.3" font-family="Times,serif" font-size="14.00" fill="#000000">_layout</text>
<text text-anchor="start" x="274" y="-274.3" font-family="Times,serif" font-size="14.00" fill="#000000">set_customer</text>
</g>
<!-- PagesController -->
<g id="node4" class="node">
<title>PagesController</title>
<path fill="none" stroke="#000000" d="M432,-196.5C432,-196.5 512,-196.5 512,-196.5 518,-196.5 524,-202.5 524,-208.5 524,-208.5 524,-292.5 524,-292.5 524,-298.5 518,-304.5 512,-304.5 512,-304.5 432,-304.5 432,-304.5 426,-304.5 420,-298.5 420,-292.5 420,-292.5 420,-208.5 420,-208.5 420,-202.5 426,-196.5 432,-196.5"/>
<text text-anchor="middle" x="472" y="-289.3" font-family="Times,serif" font-size="14.00" fill="#000000">PagesController</text>
<polyline fill="none" stroke="#000000" points="420,-281.5 524,-281.5 "/>
<text text-anchor="start" x="428" y="-266.3" font-family="Times,serif" font-size="14.00" fill="#000000">endcall</text>
<text text-anchor="start" x="428" y="-251.3" font-family="Times,serif" font-size="14.00" fill="#000000">home</text>
<polyline fill="none" stroke="#000000" points="420,-243.5 524,-243.5 "/>
<polyline fill="none" stroke="#000000" points="420,-219.5 524,-219.5 "/>
<text text-anchor="start" x="428" y="-204.3" font-family="Times,serif" font-size="14.00" fill="#000000">_layout</text>
</g>
<!-- ApplicationController -->
<g id="node5" class="node">
<title>ApplicationController</title>
<path fill="none" stroke="#000000" d="M334,-70.5C334,-70.5 446,-70.5 446,-70.5 452,-70.5 458,-76.5 458,-82.5 458,-82.5 458,-152.5 458,-152.5 458,-158.5 452,-164.5 446,-164.5 446,-164.5 334,-164.5 334,-164.5 328,-164.5 322,-158.5 322,-152.5 322,-152.5 322,-82.5 322,-82.5 322,-76.5 328,-70.5 334,-70.5"/>
<text text-anchor="middle" x="390" y="-149.3" font-family="Times,serif" font-size="14.00" fill="#000000">ApplicationController</text>
<polyline fill="none" stroke="#000000" points="322,-141.5 458,-141.5 "/>
<polyline fill="none" stroke="#000000" points="322,-117.5 458,-117.5 "/>
<polyline fill="none" stroke="#000000" points="322,-93.5 458,-93.5 "/>
<text text-anchor="start" x="330" y="-78.3" font-family="Times,serif" font-size="14.00" fill="#000000">_layout</text>
</g>
<!-- CallsController -->
<g id="node6" class="node">
<title>CallsController</title>
<path fill="none" stroke="#000000" d="M12,-.5C12,-.5 88,-.5 88,-.5 94,-.5 100,-6.5 100,-12.5 100,-12.5 100,-111.5 100,-111.5 100,-117.5 94,-123.5 88,-123.5 88,-123.5 12,-123.5 12,-123.5 6,-123.5 0,-117.5 0,-111.5 0,-111.5 0,-12.5 0,-12.5 0,-6.5 6,-.5 12,-.5"/>
<text text-anchor="middle" x="50" y="-108.3" font-family="Times,serif" font-size="14.00" fill="#000000">CallsController</text>
<polyline fill="none" stroke="#000000" points="0,-100.5 100,-100.5 "/>
<text text-anchor="start" x="8" y="-85.3" font-family="Times,serif" font-size="14.00" fill="#000000">create</text>
<text text-anchor="start" x="8" y="-70.3" font-family="Times,serif" font-size="14.00" fill="#000000">show</text>
<text text-anchor="start" x="8" y="-55.3" font-family="Times,serif" font-size="14.00" fill="#000000">update</text>
<polyline fill="none" stroke="#000000" points="0,-47.5 100,-47.5 "/>
<polyline fill="none" stroke="#000000" points="0,-23.5 100,-23.5 "/>
<text text-anchor="start" x="8" y="-8.3" font-family="Times,serif" font-size="14.00" fill="#000000">_layout</text>
</g>
<!-- InterpretersController -->
<g id="node7" class="node">
<title>InterpretersController</title>
<path fill="none" stroke="#000000" d="M110,-294.5C110,-294.5 220,-294.5 220,-294.5 226,-294.5 232,-300.5 232,-306.5 232,-306.5 232,-405.5 232,-405.5 232,-411.5 226,-417.5 220,-417.5 220,-417.5 110,-417.5 110,-417.5 104,-417.5 98,-411.5 98,-405.5 98,-405.5 98,-306.5 98,-306.5 98,-300.5 104,-294.5 110,-294.5"/>
<text text-anchor="middle" x="165" y="-402.3" font-family="Times,serif" font-size="14.00" fill="#000000">InterpretersController</text>
<polyline fill="none" stroke="#000000" points="98,-394.5 232,-394.5 "/>
<text text-anchor="start" x="106" y="-379.3" font-family="Times,serif" font-size="14.00" fill="#000000">index</text>
<text text-anchor="start" x="106" y="-364.3" font-family="Times,serif" font-size="14.00" fill="#000000">show</text>
<polyline fill="none" stroke="#000000" points="98,-356.5 232,-356.5 "/>
<polyline fill="none" stroke="#000000" points="98,-332.5 232,-332.5 "/>
<text text-anchor="start" x="106" y="-317.3" font-family="Times,serif" font-size="14.00" fill="#000000">_layout</text>
<text text-anchor="start" x="106" y="-302.3" font-family="Times,serif" font-size="14.00" fill="#000000">set_interpreter</text>
</g>
</g>
</svg>
