<?xml version="1.0" encoding="UTF-8" standalone="no"?>
<!DOCTYPE svg PUBLIC "-//W3C//DTD SVG 1.1//EN"
 "http://www.w3.org/Graphics/SVG/1.1/DTD/svg11.dtd">
<!-- Generated by graphviz version 2.40.1 (20161225.0304)
 -->
<!-- Title: controllers_diagram Pages: 1 -->
<svg width="638pt" height="657pt"
 viewBox="0.00 0.00 638.00 657.00" xmlns="http://www.w3.org/2000/svg" xmlns:xlink="http://www.w3.org/1999/xlink">
<g id="graph0" class="graph" transform="scale(1 1) rotate(0) translate(4 653)">
<title>controllers_diagram</title>
<polygon fill="transparent" stroke="transparent" points="-4,4 -4,-653 634,-653 634,4 -4,4"/>
<!-- _diagram_info -->
<g id="node1" class="node">
<title>_diagram_info</title>
<text text-anchor="start" x="408" y="-191.6" font-family="Times,serif" font-size="13.00" fill="#000000">Controllers diagram</text>
<text text-anchor="start" x="408" y="-177.6" font-family="Times,serif" font-size="13.00" fill="#000000">Date: Dec 05 2018 &#45; 11:05</text>
<text text-anchor="start" x="408" y="-163.6" font-family="Times,serif" font-size="13.00" fill="#000000">Migration version: 20181203090418</text>
<text text-anchor="start" x="408" y="-149.6" font-family="Times,serif" font-size="13.00" fill="#000000">Generated by RailRoady 1.5.3</text>
<text text-anchor="start" x="408" y="-135.6" font-family="Times,serif" font-size="13.00" fill="#000000">http://railroady.prestonlee.com</text>
</g>
<!-- User::ConfirmationsController -->
<g id="node2" class="node">
<title>User::ConfirmationsController</title>
<path fill="none" stroke="#000000" d="M76,-48.5C76,-48.5 236,-48.5 236,-48.5 242,-48.5 248,-54.5 248,-60.5 248,-60.5 248,-130.5 248,-130.5 248,-136.5 242,-142.5 236,-142.5 236,-142.5 76,-142.5 76,-142.5 70,-142.5 64,-136.5 64,-130.5 64,-130.5 64,-60.5 64,-60.5 64,-54.5 70,-48.5 76,-48.5"/>
<text text-anchor="middle" x="156" y="-127.3" font-family="Times,serif" font-size="14.00" fill="#000000">User::ConfirmationsController</text>
<polyline fill="none" stroke="#000000" points="64,-119.5 248,-119.5 "/>
<polyline fill="none" stroke="#000000" points="64,-95.5 248,-95.5 "/>
<polyline fill="none" stroke="#000000" points="64,-71.5 248,-71.5 "/>
<text text-anchor="start" x="72" y="-56.3" font-family="Times,serif" font-size="14.00" fill="#000000">_layout</text>
</g>
<!-- User::UnlocksController -->
<g id="node3" class="node">
<title>User::UnlocksController</title>
<path fill="none" stroke="#000000" d="M492,-.5C492,-.5 618,-.5 618,-.5 624,-.5 630,-6.5 630,-12.5 630,-12.5 630,-82.5 630,-82.5 630,-88.5 624,-94.5 618,-94.5 618,-94.5 492,-94.5 492,-94.5 486,-94.5 480,-88.5 480,-82.5 480,-82.5 480,-12.5 480,-12.5 480,-6.5 486,-.5 492,-.5"/>
<text text-anchor="middle" x="555" y="-79.3" font-family="Times,serif" font-size="14.00" fill="#000000">User::UnlocksController</text>
<polyline fill="none" stroke="#000000" points="480,-71.5 630,-71.5 "/>
<polyline fill="none" stroke="#000000" points="480,-47.5 630,-47.5 "/>
<polyline fill="none" stroke="#000000" points="480,-23.5 630,-23.5 "/>
<text text-anchor="start" x="488" y="-8.3" font-family="Times,serif" font-size="14.00" fill="#000000">_layout</text>
</g>
<!-- User::SessionsController -->
<g id="node4" class="node">
<title>User::SessionsController</title>
<path fill="none" stroke="#000000" d="M316,-512.5C316,-512.5 444,-512.5 444,-512.5 450,-512.5 456,-518.5 456,-524.5 456,-524.5 456,-594.5 456,-594.5 456,-600.5 450,-606.5 444,-606.5 444,-606.5 316,-606.5 316,-606.5 310,-606.5 304,-600.5 304,-594.5 304,-594.5 304,-524.5 304,-524.5 304,-518.5 310,-512.5 316,-512.5"/>
<text text-anchor="middle" x="380" y="-591.3" font-family="Times,serif" font-size="14.00" fill="#000000">User::SessionsController</text>
<polyline fill="none" stroke="#000000" points="304,-583.5 456,-583.5 "/>
<polyline fill="none" stroke="#000000" points="304,-559.5 456,-559.5 "/>
<polyline fill="none" stroke="#000000" points="304,-535.5 456,-535.5 "/>
<text text-anchor="start" x="312" y="-520.3" font-family="Times,serif" font-size="14.00" fill="#000000">_layout</text>
</g>
<!-- User::RegistrationsController -->
<g id="node5" class="node">
<title>User::RegistrationsController</title>
<path fill="none" stroke="#000000" d="M172,-176.5C172,-176.5 354,-176.5 354,-176.5 360,-176.5 366,-182.5 366,-188.5 366,-188.5 366,-302.5 366,-302.5 366,-308.5 360,-314.5 354,-314.5 354,-314.5 172,-314.5 172,-314.5 166,-314.5 160,-308.5 160,-302.5 160,-302.5 160,-188.5 160,-188.5 160,-182.5 166,-176.5 172,-176.5"/>
<text text-anchor="middle" x="263" y="-299.3" font-family="Times,serif" font-size="14.00" fill="#000000">User::RegistrationsController</text>
<polyline fill="none" stroke="#000000" points="160,-291.5 366,-291.5 "/>
<text text-anchor="start" x="168" y="-276.3" font-family="Times,serif" font-size="14.00" fill="#000000">configure_account_update_params</text>
<text text-anchor="start" x="168" y="-261.3" font-family="Times,serif" font-size="14.00" fill="#000000">configure_sign_up_params</text>
<text text-anchor="start" x="168" y="-246.3" font-family="Times,serif" font-size="14.00" fill="#000000">create</text>
<text text-anchor="start" x="168" y="-231.3" font-family="Times,serif" font-size="14.00" fill="#000000">new</text>
<polyline fill="none" stroke="#000000" points="160,-223.5 366,-223.5 "/>
<polyline fill="none" stroke="#000000" points="160,-199.5 366,-199.5 "/>
<text text-anchor="start" x="168" y="-184.3" font-family="Times,serif" font-size="14.00" fill="#000000">_layout</text>
</g>
<!-- User::PasswordsController -->
<g id="node6" class="node">
<title>User::PasswordsController</title>
<path fill="none" stroke="#000000" d="M300,-.5C300,-.5 438,-.5 438,-.5 444,-.5 450,-6.5 450,-12.5 450,-12.5 450,-82.5 450,-82.5 450,-88.5 444,-94.5 438,-94.5 438,-94.5 300,-94.5 300,-94.5 294,-94.5 288,-88.5 288,-82.5 288,-82.5 288,-12.5 288,-12.5 288,-6.5 294,-.5 300,-.5"/>
<text text-anchor="middle" x="369" y="-79.3" font-family="Times,serif" font-size="14.00" fill="#000000">User::PasswordsController</text>
<polyline fill="none" stroke="#000000" points="288,-71.5 450,-71.5 "/>
<polyline fill="none" stroke="#000000" points="288,-47.5 450,-47.5 "/>
<polyline fill="none" stroke="#000000" points="288,-23.5 450,-23.5 "/>
<text text-anchor="start" x="296" y="-8.3" font-family="Times,serif" font-size="14.00" fill="#000000">_layout</text>
</g>
<!-- User::OmniauthCallbacksController -->
<g id="node7" class="node">
<title>User::OmniauthCallbacksController</title>
<path fill="none" stroke="#000000" d="M380,-352.5C380,-352.5 569,-352.5 569,-352.5 575,-352.5 581,-358.5 581,-364.5 581,-364.5 581,-434.5 581,-434.5 581,-440.5 575,-446.5 569,-446.5 569,-446.5 380,-446.5 380,-446.5 374,-446.5 368,-440.5 368,-434.5 368,-434.5 368,-364.5 368,-364.5 368,-358.5 374,-352.5 380,-352.5"/>
<text text-anchor="middle" x="474.5" y="-431.3" font-family="Times,serif" font-size="14.00" fill="#000000">User::OmniauthCallbacksController</text>
<polyline fill="none" stroke="#000000" points="368,-423.5 581,-423.5 "/>
<polyline fill="none" stroke="#000000" points="368,-399.5 581,-399.5 "/>
<polyline fill="none" stroke="#000000" points="368,-375.5 581,-375.5 "/>
<text text-anchor="start" x="376" y="-360.3" font-family="Times,serif" font-size="14.00" fill="#000000">_layout</text>
</g>
<!-- UserViewsController -->
<g id="node8" class="node">
<title>UserViewsController</title>
<path fill="none" stroke="#000000" d="M156,-512.5C156,-512.5 264,-512.5 264,-512.5 270,-512.5 276,-518.5 276,-524.5 276,-524.5 276,-608.5 276,-608.5 276,-614.5 270,-620.5 264,-620.5 264,-620.5 156,-620.5 156,-620.5 150,-620.5 144,-614.5 144,-608.5 144,-608.5 144,-524.5 144,-524.5 144,-518.5 150,-512.5 156,-512.5"/>
<text text-anchor="middle" x="210" y="-605.3" font-family="Times,serif" font-size="14.00" fill="#000000">UserViewsController</text>
<polyline fill="none" stroke="#000000" points="144,-597.5 276,-597.5 "/>
<text text-anchor="start" x="152" y="-582.3" font-family="Times,serif" font-size="14.00" fill="#000000">index</text>
<text text-anchor="start" x="152" y="-567.3" font-family="Times,serif" font-size="14.00" fill="#000000">show</text>
<polyline fill="none" stroke="#000000" points="144,-559.5 276,-559.5 "/>
<polyline fill="none" stroke="#000000" points="144,-535.5 276,-535.5 "/>
<text text-anchor="start" x="152" y="-520.3" font-family="Times,serif" font-size="14.00" fill="#000000">_layout</text>
</g>
<!-- HomesController -->
<g id="node9" class="node">
<title>HomesController</title>
<path fill="none" stroke="#000000" d="M12,-528.5C12,-528.5 99,-528.5 99,-528.5 105,-528.5 111,-534.5 111,-540.5 111,-540.5 111,-609.5 111,-609.5 111,-615.5 105,-621.5 99,-621.5 99,-621.5 12,-621.5 12,-621.5 6,-621.5 0,-615.5 0,-609.5 0,-609.5 0,-540.5 0,-540.5 0,-534.5 6,-528.5 12,-528.5"/>
<text text-anchor="middle" x="55.5" y="-606.3" font-family="Times,serif" font-size="14.00" fill="#000000">HomesController</text>
<polyline fill="none" stroke="#000000" points="0,-598.5 111,-598.5 "/>
<text text-anchor="start" x="8" y="-583.3" font-family="Times,serif" font-size="14.00" fill="#000000">home</text>
<polyline fill="none" stroke="#000000" points="0,-575.5 111,-575.5 "/>
<polyline fill="none" stroke="#000000" points="0,-551.5 111,-551.5 "/>
<text text-anchor="start" x="8" y="-536.3" font-family="Times,serif" font-size="14.00" fill="#000000">_layout</text>
</g>
<!-- PagesController -->
<g id="node10" class="node">
<title>PagesController</title>
<path fill="none" stroke="#000000" d="M28,-240.5C28,-240.5 108,-240.5 108,-240.5 114,-240.5 120,-246.5 120,-252.5 120,-252.5 120,-336.5 120,-336.5 120,-342.5 114,-348.5 108,-348.5 108,-348.5 28,-348.5 28,-348.5 22,-348.5 16,-342.5 16,-336.5 16,-336.5 16,-252.5 16,-252.5 16,-246.5 22,-240.5 28,-240.5"/>
<text text-anchor="middle" x="68" y="-333.3" font-family="Times,serif" font-size="14.00" fill="#000000">PagesController</text>
<polyline fill="none" stroke="#000000" points="16,-325.5 120,-325.5 "/>
<text text-anchor="start" x="24" y="-310.3" font-family="Times,serif" font-size="14.00" fill="#000000">home</text>
<text text-anchor="start" x="24" y="-295.3" font-family="Times,serif" font-size="14.00" fill="#000000">index</text>
<polyline fill="none" stroke="#000000" points="16,-287.5 120,-287.5 "/>
<polyline fill="none" stroke="#000000" points="16,-263.5 120,-263.5 "/>
<text text-anchor="start" x="24" y="-248.3" font-family="Times,serif" font-size="14.00" fill="#000000">_layout</text>
</g>
<!-- ApplicationController -->
<g id="node11" class="node">
<title>ApplicationController</title>
<path fill="none" stroke="#000000" d="M156,-384.5C156,-384.5 326,-384.5 326,-384.5 332,-384.5 338,-390.5 338,-396.5 338,-396.5 338,-464.5 338,-464.5 338,-470.5 332,-476.5 326,-476.5 326,-476.5 156,-476.5 156,-476.5 150,-476.5 144,-470.5 144,-464.5 144,-464.5 144,-396.5 144,-396.5 144,-390.5 150,-384.5 156,-384.5"/>
<text text-anchor="middle" x="241" y="-461.3" font-family="Times,serif" font-size="14.00" fill="#000000">ApplicationController</text>
<polyline fill="none" stroke="#000000" points="144,-453.5 338,-453.5 "/>
<text text-anchor="start" x="152" y="-438.3" font-family="Times,serif" font-size="14.00" fill="#000000">set_cookies</text>
<polyline fill="none" stroke="#000000" points="144,-430.5 338,-430.5 "/>
<text text-anchor="start" x="152" y="-415.3" font-family="Times,serif" font-size="14.00" fill="#000000">configure_permitted_parameters</text>
<polyline fill="none" stroke="#000000" points="144,-407.5 338,-407.5 "/>
<text text-anchor="start" x="152" y="-392.3" font-family="Times,serif" font-size="14.00" fill="#000000">_layout</text>
</g>
<!-- CallsController -->
<g id="node12" class="node">
<title>CallsController</title>
<path fill="none" stroke="#000000" d="M508,-480.5C508,-480.5 594,-480.5 594,-480.5 600,-480.5 606,-486.5 606,-492.5 606,-492.5 606,-636.5 606,-636.5 606,-642.5 600,-648.5 594,-648.5 594,-648.5 508,-648.5 508,-648.5 502,-648.5 496,-642.5 496,-636.5 496,-636.5 496,-492.5 496,-492.5 496,-486.5 502,-480.5 508,-480.5"/>
<text text-anchor="middle" x="551" y="-633.3" font-family="Times,serif" font-size="14.00" fill="#000000">CallsController</text>
<polyline fill="none" stroke="#000000" points="496,-625.5 606,-625.5 "/>
<text text-anchor="start" x="504" y="-610.3" font-family="Times,serif" font-size="14.00" fill="#000000">attach_twilio_sid</text>
<text text-anchor="start" x="504" y="-595.3" font-family="Times,serif" font-size="14.00" fill="#000000">create</text>
<text text-anchor="start" x="504" y="-580.3" font-family="Times,serif" font-size="14.00" fill="#000000">end_call</text>
<text text-anchor="start" x="504" y="-565.3" font-family="Times,serif" font-size="14.00" fill="#000000">get_twilio_jwt</text>
<text text-anchor="start" x="504" y="-550.3" font-family="Times,serif" font-size="14.00" fill="#000000">join</text>
<text text-anchor="start" x="504" y="-535.3" font-family="Times,serif" font-size="14.00" fill="#000000">start</text>
<polyline fill="none" stroke="#000000" points="496,-527.5 606,-527.5 "/>
<polyline fill="none" stroke="#000000" points="496,-503.5 606,-503.5 "/>
<text text-anchor="start" x="504" y="-488.3" font-family="Times,serif" font-size="14.00" fill="#000000">_layout</text>
</g>
</g>
</svg>
