<?xml version="1.0" encoding="UTF-8" standalone="no"?>
<!DOCTYPE svg PUBLIC "-//W3C//DTD SVG 1.1//EN"
 "http://www.w3.org/Graphics/SVG/1.1/DTD/svg11.dtd">
<!-- Generated by graphviz version 2.40.1 (20161225.0304)
 -->
<!-- Title: controllers_diagram Pages: 1 -->
<svg width="652pt" height="702pt"
 viewBox="0.00 0.00 652.00 702.00" xmlns="http://www.w3.org/2000/svg" xmlns:xlink="http://www.w3.org/1999/xlink">
<g id="graph0" class="graph" transform="scale(1 1) rotate(0) translate(4 698)">
<title>controllers_diagram</title>
<polygon fill="transparent" stroke="transparent" points="-4,4 -4,-698 648,-698 648,4 -4,4"/>
<!-- _diagram_info -->
<g id="node1" class="node">
<title>_diagram_info</title>
<text text-anchor="start" x="338" y="-393.6" font-family="Times,serif" font-size="13.00" fill="#000000">Controllers diagram</text>
<text text-anchor="start" x="338" y="-379.6" font-family="Times,serif" font-size="13.00" fill="#000000">Date: Nov 29 2018 &#45; 22:03</text>
<text text-anchor="start" x="338" y="-365.6" font-family="Times,serif" font-size="13.00" fill="#000000">Migration version: 20181129072629</text>
<text text-anchor="start" x="338" y="-351.6" font-family="Times,serif" font-size="13.00" fill="#000000">Generated by RailRoady 1.5.3</text>
<text text-anchor="start" x="338" y="-337.6" font-family="Times,serif" font-size="13.00" fill="#000000">http://railroady.prestonlee.com</text>
</g>
<!-- User::ConfirmationsController -->
<g id="node2" class="node">
<title>User::ConfirmationsController</title>
<path fill="none" stroke="#000000" d="M132,-420.5C132,-420.5 292,-420.5 292,-420.5 298,-420.5 304,-426.5 304,-432.5 304,-432.5 304,-502.5 304,-502.5 304,-508.5 298,-514.5 292,-514.5 292,-514.5 132,-514.5 132,-514.5 126,-514.5 120,-508.5 120,-502.5 120,-502.5 120,-432.5 120,-432.5 120,-426.5 126,-420.5 132,-420.5"/>
<text text-anchor="middle" x="212" y="-499.3" font-family="Times,serif" font-size="14.00" fill="#000000">User::ConfirmationsController</text>
<polyline fill="none" stroke="#000000" points="120,-491.5 304,-491.5 "/>
<polyline fill="none" stroke="#000000" points="120,-467.5 304,-467.5 "/>
<polyline fill="none" stroke="#000000" points="120,-443.5 304,-443.5 "/>
<text text-anchor="start" x="128" y="-428.3" font-family="Times,serif" font-size="14.00" fill="#000000">_layout</text>
</g>
<!-- User::UnlocksController -->
<g id="node3" class="node">
<title>User::UnlocksController</title>
<path fill="none" stroke="#000000" d="M27,-75.5C27,-75.5 153,-75.5 153,-75.5 159,-75.5 165,-81.5 165,-87.5 165,-87.5 165,-157.5 165,-157.5 165,-163.5 159,-169.5 153,-169.5 153,-169.5 27,-169.5 27,-169.5 21,-169.5 15,-163.5 15,-157.5 15,-157.5 15,-87.5 15,-87.5 15,-81.5 21,-75.5 27,-75.5"/>
<text text-anchor="middle" x="90" y="-154.3" font-family="Times,serif" font-size="14.00" fill="#000000">User::UnlocksController</text>
<polyline fill="none" stroke="#000000" points="15,-146.5 165,-146.5 "/>
<polyline fill="none" stroke="#000000" points="15,-122.5 165,-122.5 "/>
<polyline fill="none" stroke="#000000" points="15,-98.5 165,-98.5 "/>
<text text-anchor="start" x="23" y="-83.3" font-family="Times,serif" font-size="14.00" fill="#000000">_layout</text>
</g>
<!-- User::SessionsController -->
<g id="node4" class="node">
<title>User::SessionsController</title>
<path fill="none" stroke="#000000" d="M207,-540.5C207,-540.5 335,-540.5 335,-540.5 341,-540.5 347,-546.5 347,-552.5 347,-552.5 347,-622.5 347,-622.5 347,-628.5 341,-634.5 335,-634.5 335,-634.5 207,-634.5 207,-634.5 201,-634.5 195,-628.5 195,-622.5 195,-622.5 195,-552.5 195,-552.5 195,-546.5 201,-540.5 207,-540.5"/>
<text text-anchor="middle" x="271" y="-619.3" font-family="Times,serif" font-size="14.00" fill="#000000">User::SessionsController</text>
<polyline fill="none" stroke="#000000" points="195,-611.5 347,-611.5 "/>
<polyline fill="none" stroke="#000000" points="195,-587.5 347,-587.5 "/>
<polyline fill="none" stroke="#000000" points="195,-563.5 347,-563.5 "/>
<text text-anchor="start" x="203" y="-548.3" font-family="Times,serif" font-size="14.00" fill="#000000">_layout</text>
</g>
<!-- User::RegistrationsController -->
<g id="node5" class="node">
<title>User::RegistrationsController</title>
<path fill="none" stroke="#000000" d="M342,-90.5C342,-90.5 494,-90.5 494,-90.5 500,-90.5 506,-96.5 506,-102.5 506,-102.5 506,-171.5 506,-171.5 506,-177.5 500,-183.5 494,-183.5 494,-183.5 342,-183.5 342,-183.5 336,-183.5 330,-177.5 330,-171.5 330,-171.5 330,-102.5 330,-102.5 330,-96.5 336,-90.5 342,-90.5"/>
<text text-anchor="middle" x="418" y="-168.3" font-family="Times,serif" font-size="14.00" fill="#000000">User::RegistrationsController</text>
<polyline fill="none" stroke="#000000" points="330,-160.5 506,-160.5 "/>
<text text-anchor="start" x="338" y="-145.3" font-family="Times,serif" font-size="14.00" fill="#000000">new</text>
<polyline fill="none" stroke="#000000" points="330,-137.5 506,-137.5 "/>
<polyline fill="none" stroke="#000000" points="330,-113.5 506,-113.5 "/>
<text text-anchor="start" x="338" y="-98.3" font-family="Times,serif" font-size="14.00" fill="#000000">_layout</text>
</g>
<!-- User::PasswordsController -->
<g id="node6" class="node">
<title>User::PasswordsController</title>
<path fill="none" stroke="#000000" d="M12,-540.5C12,-540.5 150,-540.5 150,-540.5 156,-540.5 162,-546.5 162,-552.5 162,-552.5 162,-622.5 162,-622.5 162,-628.5 156,-634.5 150,-634.5 150,-634.5 12,-634.5 12,-634.5 6,-634.5 0,-628.5 0,-622.5 0,-622.5 0,-552.5 0,-552.5 0,-546.5 6,-540.5 12,-540.5"/>
<text text-anchor="middle" x="81" y="-619.3" font-family="Times,serif" font-size="14.00" fill="#000000">User::PasswordsController</text>
<polyline fill="none" stroke="#000000" points="0,-611.5 162,-611.5 "/>
<polyline fill="none" stroke="#000000" points="0,-587.5 162,-587.5 "/>
<polyline fill="none" stroke="#000000" points="0,-563.5 162,-563.5 "/>
<text text-anchor="start" x="8" y="-548.3" font-family="Times,serif" font-size="14.00" fill="#000000">_layout</text>
</g>
<!-- User::OmniauthCallbacksController -->
<g id="node7" class="node">
<title>User::OmniauthCallbacksController</title>
<path fill="none" stroke="#000000" d="M342,-210.5C342,-210.5 531,-210.5 531,-210.5 537,-210.5 543,-216.5 543,-222.5 543,-222.5 543,-292.5 543,-292.5 543,-298.5 537,-304.5 531,-304.5 531,-304.5 342,-304.5 342,-304.5 336,-304.5 330,-298.5 330,-292.5 330,-292.5 330,-222.5 330,-222.5 330,-216.5 336,-210.5 342,-210.5"/>
<text text-anchor="middle" x="436.5" y="-289.3" font-family="Times,serif" font-size="14.00" fill="#000000">User::OmniauthCallbacksController</text>
<polyline fill="none" stroke="#000000" points="330,-281.5 543,-281.5 "/>
<polyline fill="none" stroke="#000000" points="330,-257.5 543,-257.5 "/>
<polyline fill="none" stroke="#000000" points="330,-233.5 543,-233.5 "/>
<text text-anchor="start" x="338" y="-218.3" font-family="Times,serif" font-size="14.00" fill="#000000">_layout</text>
</g>
<!-- HomesController -->
<g id="node8" class="node">
<title>HomesController</title>
<path fill="none" stroke="#000000" d="M207,-75.5C207,-75.5 294,-75.5 294,-75.5 300,-75.5 306,-81.5 306,-87.5 306,-87.5 306,-156.5 306,-156.5 306,-162.5 300,-168.5 294,-168.5 294,-168.5 207,-168.5 207,-168.5 201,-168.5 195,-162.5 195,-156.5 195,-156.5 195,-87.5 195,-87.5 195,-81.5 201,-75.5 207,-75.5"/>
<text text-anchor="middle" x="250.5" y="-153.3" font-family="Times,serif" font-size="14.00" fill="#000000">HomesController</text>
<polyline fill="none" stroke="#000000" points="195,-145.5 306,-145.5 "/>
<text text-anchor="start" x="203" y="-130.3" font-family="Times,serif" font-size="14.00" fill="#000000">home</text>
<polyline fill="none" stroke="#000000" points="195,-122.5 306,-122.5 "/>
<polyline fill="none" stroke="#000000" points="195,-98.5 306,-98.5 "/>
<text text-anchor="start" x="203" y="-83.3" font-family="Times,serif" font-size="14.00" fill="#000000">_layout</text>
</g>
<!-- CustomersController -->
<g id="node9" class="node">
<title>CustomersController</title>
<path fill="none" stroke="#000000" d="M12,-270.5C12,-270.5 119,-270.5 119,-270.5 125,-270.5 131,-276.5 131,-282.5 131,-282.5 131,-381.5 131,-381.5 131,-387.5 125,-393.5 119,-393.5 119,-393.5 12,-393.5 12,-393.5 6,-393.5 0,-387.5 0,-381.5 0,-381.5 0,-282.5 0,-282.5 0,-276.5 6,-270.5 12,-270.5"/>
<text text-anchor="middle" x="65.5" y="-378.3" font-family="Times,serif" font-size="14.00" fill="#000000">CustomersController</text>
<polyline fill="none" stroke="#000000" points="0,-370.5 131,-370.5 "/>
<text text-anchor="start" x="8" y="-355.3" font-family="Times,serif" font-size="14.00" fill="#000000">index</text>
<text text-anchor="start" x="8" y="-340.3" font-family="Times,serif" font-size="14.00" fill="#000000">show</text>
<polyline fill="none" stroke="#000000" points="0,-332.5 131,-332.5 "/>
<polyline fill="none" stroke="#000000" points="0,-308.5 131,-308.5 "/>
<text text-anchor="start" x="8" y="-293.3" font-family="Times,serif" font-size="14.00" fill="#000000">_layout</text>
<text text-anchor="start" x="8" y="-278.3" font-family="Times,serif" font-size="14.00" fill="#000000">set_customer</text>
</g>
<!-- PagesController -->
<g id="node10" class="node">
<title>PagesController</title>
<path fill="none" stroke="#000000" d="M552,-.5C552,-.5 632,-.5 632,-.5 638,-.5 644,-6.5 644,-12.5 644,-12.5 644,-96.5 644,-96.5 644,-102.5 638,-108.5 632,-108.5 632,-108.5 552,-108.5 552,-108.5 546,-108.5 540,-102.5 540,-96.5 540,-96.5 540,-12.5 540,-12.5 540,-6.5 546,-.5 552,-.5"/>
<text text-anchor="middle" x="592" y="-93.3" font-family="Times,serif" font-size="14.00" fill="#000000">PagesController</text>
<polyline fill="none" stroke="#000000" points="540,-85.5 644,-85.5 "/>
<text text-anchor="start" x="548" y="-70.3" font-family="Times,serif" font-size="14.00" fill="#000000">endcall</text>
<text text-anchor="start" x="548" y="-55.3" font-family="Times,serif" font-size="14.00" fill="#000000">home</text>
<polyline fill="none" stroke="#000000" points="540,-47.5 644,-47.5 "/>
<polyline fill="none" stroke="#000000" points="540,-23.5 644,-23.5 "/>
<text text-anchor="start" x="548" y="-8.3" font-family="Times,serif" font-size="14.00" fill="#000000">_layout</text>
</g>
<!-- ApplicationController -->
<g id="node11" class="node">
<title>ApplicationController</title>
<path fill="none" stroke="#000000" d="M387,-435.5C387,-435.5 557,-435.5 557,-435.5 563,-435.5 569,-441.5 569,-447.5 569,-447.5 569,-516.5 569,-516.5 569,-522.5 563,-528.5 557,-528.5 557,-528.5 387,-528.5 387,-528.5 381,-528.5 375,-522.5 375,-516.5 375,-516.5 375,-447.5 375,-447.5 375,-441.5 381,-435.5 387,-435.5"/>
<text text-anchor="middle" x="472" y="-513.3" font-family="Times,serif" font-size="14.00" fill="#000000">ApplicationController</text>
<polyline fill="none" stroke="#000000" points="375,-505.5 569,-505.5 "/>
<polyline fill="none" stroke="#000000" points="375,-481.5 569,-481.5 "/>
<text text-anchor="start" x="383" y="-466.3" font-family="Times,serif" font-size="14.00" fill="#000000">configure_permitted_parameters</text>
<polyline fill="none" stroke="#000000" points="375,-458.5 569,-458.5 "/>
<text text-anchor="start" x="383" y="-443.3" font-family="Times,serif" font-size="14.00" fill="#000000">_layout</text>
</g>
<!-- CallsController -->
<g id="node12" class="node">
<title>CallsController</title>
<path fill="none" stroke="#000000" d="M507,-555.5C507,-555.5 583,-555.5 583,-555.5 589,-555.5 595,-561.5 595,-567.5 595,-567.5 595,-681.5 595,-681.5 595,-687.5 589,-693.5 583,-693.5 583,-693.5 507,-693.5 507,-693.5 501,-693.5 495,-687.5 495,-681.5 495,-681.5 495,-567.5 495,-567.5 495,-561.5 501,-555.5 507,-555.5"/>
<text text-anchor="middle" x="545" y="-678.3" font-family="Times,serif" font-size="14.00" fill="#000000">CallsController</text>
<polyline fill="none" stroke="#000000" points="495,-670.5 595,-670.5 "/>
<text text-anchor="start" x="503" y="-655.3" font-family="Times,serif" font-size="14.00" fill="#000000">create</text>
<text text-anchor="start" x="503" y="-640.3" font-family="Times,serif" font-size="14.00" fill="#000000">get_twilio_jwt</text>
<text text-anchor="start" x="503" y="-625.3" font-family="Times,serif" font-size="14.00" fill="#000000">join</text>
<text text-anchor="start" x="503" y="-610.3" font-family="Times,serif" font-size="14.00" fill="#000000">start</text>
<polyline fill="none" stroke="#000000" points="495,-602.5 595,-602.5 "/>
<polyline fill="none" stroke="#000000" points="495,-578.5 595,-578.5 "/>
<text text-anchor="start" x="503" y="-563.3" font-family="Times,serif" font-size="14.00" fill="#000000">_layout</text>
</g>
<!-- InterpretersController -->
<g id="node13" class="node">
<title>InterpretersController</title>
<path fill="none" stroke="#000000" d="M177,-195.5C177,-195.5 287,-195.5 287,-195.5 293,-195.5 299,-201.5 299,-207.5 299,-207.5 299,-381.5 299,-381.5 299,-387.5 293,-393.5 287,-393.5 287,-393.5 177,-393.5 177,-393.5 171,-393.5 165,-387.5 165,-381.5 165,-381.5 165,-207.5 165,-207.5 165,-201.5 171,-195.5 177,-195.5"/>
<text text-anchor="middle" x="232" y="-378.3" font-family="Times,serif" font-size="14.00" fill="#000000">InterpretersController</text>
<polyline fill="none" stroke="#000000" points="165,-370.5 299,-370.5 "/>
<text text-anchor="start" x="173" y="-355.3" font-family="Times,serif" font-size="14.00" fill="#000000">create</text>
<text text-anchor="start" x="173" y="-340.3" font-family="Times,serif" font-size="14.00" fill="#000000">edit</text>
<text text-anchor="start" x="173" y="-325.3" font-family="Times,serif" font-size="14.00" fill="#000000">index</text>
<text text-anchor="start" x="173" y="-310.3" font-family="Times,serif" font-size="14.00" fill="#000000">new</text>
<text text-anchor="start" x="173" y="-295.3" font-family="Times,serif" font-size="14.00" fill="#000000">show</text>
<text text-anchor="start" x="173" y="-280.3" font-family="Times,serif" font-size="14.00" fill="#000000">update</text>
<polyline fill="none" stroke="#000000" points="165,-272.5 299,-272.5 "/>
<polyline fill="none" stroke="#000000" points="165,-248.5 299,-248.5 "/>
<text text-anchor="start" x="173" y="-233.3" font-family="Times,serif" font-size="14.00" fill="#000000">_layout</text>
<text text-anchor="start" x="173" y="-218.3" font-family="Times,serif" font-size="14.00" fill="#000000">interpreter_params</text>
<text text-anchor="start" x="173" y="-203.3" font-family="Times,serif" font-size="14.00" fill="#000000">set_user</text>
</g>
</g>
</svg>
