<?xml version="1.0" encoding="UTF-8" standalone="no"?>
<!DOCTYPE svg PUBLIC "-//W3C//DTD SVG 1.1//EN"
 "http://www.w3.org/Graphics/SVG/1.1/DTD/svg11.dtd">
<!-- Generated by graphviz version 2.40.1 (20161225.0304)
 -->
<!-- Title: controllers_diagram Pages: 1 -->
<svg width="667pt" height="642pt"
 viewBox="0.00 0.00 667.00 642.00" xmlns="http://www.w3.org/2000/svg" xmlns:xlink="http://www.w3.org/1999/xlink">
<g id="graph0" class="graph" transform="scale(1 1) rotate(0) translate(4 638)">
<title>controllers_diagram</title>
<polygon fill="transparent" stroke="transparent" points="-4,4 -4,-638 663,-638 663,4 -4,4"/>
<!-- _diagram_info -->
<g id="node1" class="node">
<title>_diagram_info</title>
<text text-anchor="start" x="323" y="-363.6" font-family="Times,serif" font-size="13.00" fill="#000000">Controllers diagram</text>
<text text-anchor="start" x="323" y="-349.6" font-family="Times,serif" font-size="13.00" fill="#000000">Date: Nov 29 2018 &#45; 18:21</text>
<text text-anchor="start" x="323" y="-335.6" font-family="Times,serif" font-size="13.00" fill="#000000">Migration version: 20181129041509</text>
<text text-anchor="start" x="323" y="-321.6" font-family="Times,serif" font-size="13.00" fill="#000000">Generated by RailRoady 1.5.3</text>
<text text-anchor="start" x="323" y="-307.6" font-family="Times,serif" font-size="13.00" fill="#000000">http://railroady.prestonlee.com</text>
</g>
<!-- User::ConfirmationsController -->
<g id="node2" class="node">
<title>User::ConfirmationsController</title>
<path fill="none" stroke="#000000" d="M387,-120.5C387,-120.5 547,-120.5 547,-120.5 553,-120.5 559,-126.5 559,-132.5 559,-132.5 559,-202.5 559,-202.5 559,-208.5 553,-214.5 547,-214.5 547,-214.5 387,-214.5 387,-214.5 381,-214.5 375,-208.5 375,-202.5 375,-202.5 375,-132.5 375,-132.5 375,-126.5 381,-120.5 387,-120.5"/>
<text text-anchor="middle" x="467" y="-199.3" font-family="Times,serif" font-size="14.00" fill="#000000">User::ConfirmationsController</text>
<polyline fill="none" stroke="#000000" points="375,-191.5 559,-191.5 "/>
<polyline fill="none" stroke="#000000" points="375,-167.5 559,-167.5 "/>
<polyline fill="none" stroke="#000000" points="375,-143.5 559,-143.5 "/>
<text text-anchor="start" x="383" y="-128.3" font-family="Times,serif" font-size="14.00" fill="#000000">_layout</text>
</g>
<!-- User::UnlocksController -->
<g id="node3" class="node">
<title>User::UnlocksController</title>
<path fill="none" stroke="#000000" d="M87,-60.5C87,-60.5 213,-60.5 213,-60.5 219,-60.5 225,-66.5 225,-72.5 225,-72.5 225,-142.5 225,-142.5 225,-148.5 219,-154.5 213,-154.5 213,-154.5 87,-154.5 87,-154.5 81,-154.5 75,-148.5 75,-142.5 75,-142.5 75,-72.5 75,-72.5 75,-66.5 81,-60.5 87,-60.5"/>
<text text-anchor="middle" x="150" y="-139.3" font-family="Times,serif" font-size="14.00" fill="#000000">User::UnlocksController</text>
<polyline fill="none" stroke="#000000" points="75,-131.5 225,-131.5 "/>
<polyline fill="none" stroke="#000000" points="75,-107.5 225,-107.5 "/>
<polyline fill="none" stroke="#000000" points="75,-83.5 225,-83.5 "/>
<text text-anchor="start" x="83" y="-68.3" font-family="Times,serif" font-size="14.00" fill="#000000">_layout</text>
</g>
<!-- User::SessionsController -->
<g id="node4" class="node">
<title>User::SessionsController</title>
<path fill="none" stroke="#000000" d="M267,-.5C267,-.5 395,-.5 395,-.5 401,-.5 407,-6.5 407,-12.5 407,-12.5 407,-82.5 407,-82.5 407,-88.5 401,-94.5 395,-94.5 395,-94.5 267,-94.5 267,-94.5 261,-94.5 255,-88.5 255,-82.5 255,-82.5 255,-12.5 255,-12.5 255,-6.5 261,-.5 267,-.5"/>
<text text-anchor="middle" x="331" y="-79.3" font-family="Times,serif" font-size="14.00" fill="#000000">User::SessionsController</text>
<polyline fill="none" stroke="#000000" points="255,-71.5 407,-71.5 "/>
<polyline fill="none" stroke="#000000" points="255,-47.5 407,-47.5 "/>
<polyline fill="none" stroke="#000000" points="255,-23.5 407,-23.5 "/>
<text text-anchor="start" x="263" y="-8.3" font-family="Times,serif" font-size="14.00" fill="#000000">_layout</text>
</g>
<!-- User::RegistrationsController -->
<g id="node5" class="node">
<title>User::RegistrationsController</title>
<path fill="none" stroke="#000000" d="M117,-390.5C117,-390.5 269,-390.5 269,-390.5 275,-390.5 281,-396.5 281,-402.5 281,-402.5 281,-471.5 281,-471.5 281,-477.5 275,-483.5 269,-483.5 269,-483.5 117,-483.5 117,-483.5 111,-483.5 105,-477.5 105,-471.5 105,-471.5 105,-402.5 105,-402.5 105,-396.5 111,-390.5 117,-390.5"/>
<text text-anchor="middle" x="193" y="-468.3" font-family="Times,serif" font-size="14.00" fill="#000000">User::RegistrationsController</text>
<polyline fill="none" stroke="#000000" points="105,-460.5 281,-460.5 "/>
<text text-anchor="start" x="113" y="-445.3" font-family="Times,serif" font-size="14.00" fill="#000000">new</text>
<polyline fill="none" stroke="#000000" points="105,-437.5 281,-437.5 "/>
<polyline fill="none" stroke="#000000" points="105,-413.5 281,-413.5 "/>
<text text-anchor="start" x="113" y="-398.3" font-family="Times,serif" font-size="14.00" fill="#000000">_layout</text>
</g>
<!-- User::PasswordsController -->
<g id="node6" class="node">
<title>User::PasswordsController</title>
<path fill="none" stroke="#000000" d="M447,-.5C447,-.5 585,-.5 585,-.5 591,-.5 597,-6.5 597,-12.5 597,-12.5 597,-82.5 597,-82.5 597,-88.5 591,-94.5 585,-94.5 585,-94.5 447,-94.5 447,-94.5 441,-94.5 435,-88.5 435,-82.5 435,-82.5 435,-12.5 435,-12.5 435,-6.5 441,-.5 447,-.5"/>
<text text-anchor="middle" x="516" y="-79.3" font-family="Times,serif" font-size="14.00" fill="#000000">User::PasswordsController</text>
<polyline fill="none" stroke="#000000" points="435,-71.5 597,-71.5 "/>
<polyline fill="none" stroke="#000000" points="435,-47.5 597,-47.5 "/>
<polyline fill="none" stroke="#000000" points="435,-23.5 597,-23.5 "/>
<text text-anchor="start" x="443" y="-8.3" font-family="Times,serif" font-size="14.00" fill="#000000">_layout</text>
</g>
<!-- User::OmniauthCallbacksController -->
<g id="node7" class="node">
<title>User::OmniauthCallbacksController</title>
<path fill="none" stroke="#000000" d="M147,-180.5C147,-180.5 336,-180.5 336,-180.5 342,-180.5 348,-186.5 348,-192.5 348,-192.5 348,-262.5 348,-262.5 348,-268.5 342,-274.5 336,-274.5 336,-274.5 147,-274.5 147,-274.5 141,-274.5 135,-268.5 135,-262.5 135,-262.5 135,-192.5 135,-192.5 135,-186.5 141,-180.5 147,-180.5"/>
<text text-anchor="middle" x="241.5" y="-259.3" font-family="Times,serif" font-size="14.00" fill="#000000">User::OmniauthCallbacksController</text>
<polyline fill="none" stroke="#000000" points="135,-251.5 348,-251.5 "/>
<polyline fill="none" stroke="#000000" points="135,-227.5 348,-227.5 "/>
<polyline fill="none" stroke="#000000" points="135,-203.5 348,-203.5 "/>
<text text-anchor="start" x="143" y="-188.3" font-family="Times,serif" font-size="14.00" fill="#000000">_layout</text>
</g>
<!-- HomesController -->
<g id="node8" class="node">
<title>HomesController</title>
<path fill="none" stroke="#000000" d="M552,-525.5C552,-525.5 639,-525.5 639,-525.5 645,-525.5 651,-531.5 651,-537.5 651,-537.5 651,-606.5 651,-606.5 651,-612.5 645,-618.5 639,-618.5 639,-618.5 552,-618.5 552,-618.5 546,-618.5 540,-612.5 540,-606.5 540,-606.5 540,-537.5 540,-537.5 540,-531.5 546,-525.5 552,-525.5"/>
<text text-anchor="middle" x="595.5" y="-603.3" font-family="Times,serif" font-size="14.00" fill="#000000">HomesController</text>
<polyline fill="none" stroke="#000000" points="540,-595.5 651,-595.5 "/>
<text text-anchor="start" x="548" y="-580.3" font-family="Times,serif" font-size="14.00" fill="#000000">home</text>
<polyline fill="none" stroke="#000000" points="540,-572.5 651,-572.5 "/>
<polyline fill="none" stroke="#000000" points="540,-548.5 651,-548.5 "/>
<text text-anchor="start" x="548" y="-533.3" font-family="Times,serif" font-size="14.00" fill="#000000">_layout</text>
</g>
<!-- CustomersController -->
<g id="node9" class="node">
<title>CustomersController</title>
<path fill="none" stroke="#000000" d="M267,-510.5C267,-510.5 374,-510.5 374,-510.5 380,-510.5 386,-516.5 386,-522.5 386,-522.5 386,-621.5 386,-621.5 386,-627.5 380,-633.5 374,-633.5 374,-633.5 267,-633.5 267,-633.5 261,-633.5 255,-627.5 255,-621.5 255,-621.5 255,-522.5 255,-522.5 255,-516.5 261,-510.5 267,-510.5"/>
<text text-anchor="middle" x="320.5" y="-618.3" font-family="Times,serif" font-size="14.00" fill="#000000">CustomersController</text>
<polyline fill="none" stroke="#000000" points="255,-610.5 386,-610.5 "/>
<text text-anchor="start" x="263" y="-595.3" font-family="Times,serif" font-size="14.00" fill="#000000">index</text>
<text text-anchor="start" x="263" y="-580.3" font-family="Times,serif" font-size="14.00" fill="#000000">show</text>
<polyline fill="none" stroke="#000000" points="255,-572.5 386,-572.5 "/>
<polyline fill="none" stroke="#000000" points="255,-548.5 386,-548.5 "/>
<text text-anchor="start" x="263" y="-533.3" font-family="Times,serif" font-size="14.00" fill="#000000">_layout</text>
<text text-anchor="start" x="263" y="-518.3" font-family="Times,serif" font-size="14.00" fill="#000000">set_customer</text>
</g>
<!-- PagesController -->
<g id="node10" class="node">
<title>PagesController</title>
<path fill="none" stroke="#000000" d="M567,-240.5C567,-240.5 647,-240.5 647,-240.5 653,-240.5 659,-246.5 659,-252.5 659,-252.5 659,-336.5 659,-336.5 659,-342.5 653,-348.5 647,-348.5 647,-348.5 567,-348.5 567,-348.5 561,-348.5 555,-342.5 555,-336.5 555,-336.5 555,-252.5 555,-252.5 555,-246.5 561,-240.5 567,-240.5"/>
<text text-anchor="middle" x="607" y="-333.3" font-family="Times,serif" font-size="14.00" fill="#000000">PagesController</text>
<polyline fill="none" stroke="#000000" points="555,-325.5 659,-325.5 "/>
<text text-anchor="start" x="563" y="-310.3" font-family="Times,serif" font-size="14.00" fill="#000000">endcall</text>
<text text-anchor="start" x="563" y="-295.3" font-family="Times,serif" font-size="14.00" fill="#000000">home</text>
<polyline fill="none" stroke="#000000" points="555,-287.5 659,-287.5 "/>
<polyline fill="none" stroke="#000000" points="555,-263.5 659,-263.5 "/>
<text text-anchor="start" x="563" y="-248.3" font-family="Times,serif" font-size="14.00" fill="#000000">_layout</text>
</g>
<!-- ApplicationController -->
<g id="node11" class="node">
<title>ApplicationController</title>
<path fill="none" stroke="#000000" d="M432,-405.5C432,-405.5 602,-405.5 602,-405.5 608,-405.5 614,-411.5 614,-417.5 614,-417.5 614,-486.5 614,-486.5 614,-492.5 608,-498.5 602,-498.5 602,-498.5 432,-498.5 432,-498.5 426,-498.5 420,-492.5 420,-486.5 420,-486.5 420,-417.5 420,-417.5 420,-411.5 426,-405.5 432,-405.5"/>
<text text-anchor="middle" x="517" y="-483.3" font-family="Times,serif" font-size="14.00" fill="#000000">ApplicationController</text>
<polyline fill="none" stroke="#000000" points="420,-475.5 614,-475.5 "/>
<polyline fill="none" stroke="#000000" points="420,-451.5 614,-451.5 "/>
<text text-anchor="start" x="428" y="-436.3" font-family="Times,serif" font-size="14.00" fill="#000000">configure_permitted_parameters</text>
<polyline fill="none" stroke="#000000" points="420,-428.5 614,-428.5 "/>
<text text-anchor="start" x="428" y="-413.3" font-family="Times,serif" font-size="14.00" fill="#000000">_layout</text>
</g>
<!-- CallsController -->
<g id="node12" class="node">
<title>CallsController</title>
<path fill="none" stroke="#000000" d="M12,-225.5C12,-225.5 88,-225.5 88,-225.5 94,-225.5 100,-231.5 100,-237.5 100,-237.5 100,-351.5 100,-351.5 100,-357.5 94,-363.5 88,-363.5 88,-363.5 12,-363.5 12,-363.5 6,-363.5 0,-357.5 0,-351.5 0,-351.5 0,-237.5 0,-237.5 0,-231.5 6,-225.5 12,-225.5"/>
<text text-anchor="middle" x="50" y="-348.3" font-family="Times,serif" font-size="14.00" fill="#000000">CallsController</text>
<polyline fill="none" stroke="#000000" points="0,-340.5 100,-340.5 "/>
<text text-anchor="start" x="8" y="-325.3" font-family="Times,serif" font-size="14.00" fill="#000000">create</text>
<text text-anchor="start" x="8" y="-310.3" font-family="Times,serif" font-size="14.00" fill="#000000">get_twilio_jwt</text>
<text text-anchor="start" x="8" y="-295.3" font-family="Times,serif" font-size="14.00" fill="#000000">join</text>
<text text-anchor="start" x="8" y="-280.3" font-family="Times,serif" font-size="14.00" fill="#000000">start</text>
<polyline fill="none" stroke="#000000" points="0,-272.5 100,-272.5 "/>
<polyline fill="none" stroke="#000000" points="0,-248.5 100,-248.5 "/>
<text text-anchor="start" x="8" y="-233.3" font-family="Times,serif" font-size="14.00" fill="#000000">_layout</text>
</g>
<!-- InterpretersController -->
<g id="node13" class="node">
<title>InterpretersController</title>
<path fill="none" stroke="#000000" d="M102,-510.5C102,-510.5 212,-510.5 212,-510.5 218,-510.5 224,-516.5 224,-522.5 224,-522.5 224,-621.5 224,-621.5 224,-627.5 218,-633.5 212,-633.5 212,-633.5 102,-633.5 102,-633.5 96,-633.5 90,-627.5 90,-621.5 90,-621.5 90,-522.5 90,-522.5 90,-516.5 96,-510.5 102,-510.5"/>
<text text-anchor="middle" x="157" y="-618.3" font-family="Times,serif" font-size="14.00" fill="#000000">InterpretersController</text>
<polyline fill="none" stroke="#000000" points="90,-610.5 224,-610.5 "/>
<text text-anchor="start" x="98" y="-595.3" font-family="Times,serif" font-size="14.00" fill="#000000">index</text>
<text text-anchor="start" x="98" y="-580.3" font-family="Times,serif" font-size="14.00" fill="#000000">show</text>
<polyline fill="none" stroke="#000000" points="90,-572.5 224,-572.5 "/>
<polyline fill="none" stroke="#000000" points="90,-548.5 224,-548.5 "/>
<text text-anchor="start" x="98" y="-533.3" font-family="Times,serif" font-size="14.00" fill="#000000">_layout</text>
<text text-anchor="start" x="98" y="-518.3" font-family="Times,serif" font-size="14.00" fill="#000000">set_interpreter</text>
</g>
</g>
</svg>
