<?xml version="1.0" encoding="UTF-8" standalone="no"?>
<!DOCTYPE svg PUBLIC "-//W3C//DTD SVG 1.1//EN"
 "http://www.w3.org/Graphics/SVG/1.1/DTD/svg11.dtd">
<!-- Generated by graphviz version 2.40.1 (20161225.0304)
 -->
<!-- Title: models_diagram Pages: 1 -->
<svg width="656pt" height="498pt"
 viewBox="0.00 0.00 656.34 498.00" xmlns="http://www.w3.org/2000/svg" xmlns:xlink="http://www.w3.org/1999/xlink">
<g id="graph0" class="graph" transform="scale(1 1) rotate(0) translate(4 494)">
<title>models_diagram</title>
<polygon fill="transparent" stroke="transparent" points="-4,4 -4,-494 652.3431,-494 652.3431,4 -4,4"/>
<!-- _diagram_info -->
<g id="node1" class="node">
<title>_diagram_info</title>
<text text-anchor="start" x="8" y="-438.6" font-family="Times,serif" font-size="13.00" fill="#000000">Models diagram</text>
<text text-anchor="start" x="8" y="-424.6" font-family="Times,serif" font-size="13.00" fill="#000000">Date: Dec 05 2018 &#45; 11:05</text>
<text text-anchor="start" x="8" y="-410.6" font-family="Times,serif" font-size="13.00" fill="#000000">Migration version: 20181203090418</text>
<text text-anchor="start" x="8" y="-396.6" font-family="Times,serif" font-size="13.00" fill="#000000">Generated by RailRoady 1.5.3</text>
<text text-anchor="start" x="8" y="-382.6" font-family="Times,serif" font-size="13.00" fill="#000000">http://railroady.prestonlee.com</text>
</g>
<!-- Call -->
<g id="node2" class="node">
<title>Call</title>
<path fill="none" stroke="#000000" d="M244,-338.5C244,-338.5 464,-338.5 464,-338.5 470,-338.5 476,-344.5 476,-350.5 476,-350.5 476,-477.5 476,-477.5 476,-483.5 470,-489.5 464,-489.5 464,-489.5 244,-489.5 244,-489.5 238,-489.5 232,-483.5 232,-477.5 232,-477.5 232,-350.5 232,-350.5 232,-344.5 238,-338.5 244,-338.5"/>
<text text-anchor="middle" x="354" y="-474.3" font-family="Times,serif" font-size="14.00" fill="#000000">Call</text>
<polyline fill="none" stroke="#000000" points="232,-466.5 476,-466.5 "/>
<text text-anchor="start" x="240" y="-451.3" font-family="Times,serif" font-size="14.00" fill="#000000">id :bigint</text>
<text text-anchor="start" x="240" y="-436.3" font-family="Times,serif" font-size="14.00" fill="#000000">start_time :timestamp without time zone</text>
<text text-anchor="start" x="240" y="-421.3" font-family="Times,serif" font-size="14.00" fill="#000000">end_time :timestamp without time zone</text>
<text text-anchor="start" x="240" y="-406.3" font-family="Times,serif" font-size="14.00" fill="#000000">created_at :timestamp without time zone</text>
<text text-anchor="start" x="240" y="-391.3" font-family="Times,serif" font-size="14.00" fill="#000000">updated_at :timestamp without time zone</text>
<text text-anchor="start" x="240" y="-376.3" font-family="Times,serif" font-size="14.00" fill="#000000">sender_id :bigint</text>
<text text-anchor="start" x="240" y="-361.3" font-family="Times,serif" font-size="14.00" fill="#000000">room_name :character varying</text>
<text text-anchor="start" x="240" y="-346.3" font-family="Times,serif" font-size="14.00" fill="#000000">twilio_sid :character varying</text>
</g>
<!-- User -->
<g id="node3" class="node">
<title>User</title>
<path fill="none" stroke="#000000" d="M209.5,-.5C209.5,-.5 498.5,-.5 498.5,-.5 504.5,-.5 510.5,-6.5 510.5,-12.5 510.5,-12.5 510.5,-274.5 510.5,-274.5 510.5,-280.5 504.5,-286.5 498.5,-286.5 498.5,-286.5 209.5,-286.5 209.5,-286.5 203.5,-286.5 197.5,-280.5 197.5,-274.5 197.5,-274.5 197.5,-12.5 197.5,-12.5 197.5,-6.5 203.5,-.5 209.5,-.5"/>
<text text-anchor="middle" x="354" y="-271.3" font-family="Times,serif" font-size="14.00" fill="#000000">User</text>
<polyline fill="none" stroke="#000000" points="197.5,-263.5 510.5,-263.5 "/>
<text text-anchor="start" x="205.5" y="-248.3" font-family="Times,serif" font-size="14.00" fill="#000000">id :bigint</text>
<text text-anchor="start" x="205.5" y="-233.3" font-family="Times,serif" font-size="14.00" fill="#000000">email :character varying</text>
<text text-anchor="start" x="205.5" y="-218.3" font-family="Times,serif" font-size="14.00" fill="#000000">encrypted_password :character varying</text>
<text text-anchor="start" x="205.5" y="-203.3" font-family="Times,serif" font-size="14.00" fill="#000000">reset_password_token :character varying</text>
<text text-anchor="start" x="205.5" y="-188.3" font-family="Times,serif" font-size="14.00" fill="#000000">reset_password_sent_at :timestamp without time zone</text>
<text text-anchor="start" x="205.5" y="-173.3" font-family="Times,serif" font-size="14.00" fill="#000000">remember_created_at :timestamp without time zone</text>
<text text-anchor="start" x="205.5" y="-158.3" font-family="Times,serif" font-size="14.00" fill="#000000">created_at :timestamp without time zone</text>
<text text-anchor="start" x="205.5" y="-143.3" font-family="Times,serif" font-size="14.00" fill="#000000">updated_at :timestamp without time zone</text>
<text text-anchor="start" x="205.5" y="-128.3" font-family="Times,serif" font-size="14.00" fill="#000000">last_seen :timestamp without time zone</text>
<text text-anchor="start" x="205.5" y="-113.3" font-family="Times,serif" font-size="14.00" fill="#000000">interpreter :boolean</text>
<text text-anchor="start" x="205.5" y="-98.3" font-family="Times,serif" font-size="14.00" fill="#000000">name :character varying</text>
<text text-anchor="start" x="205.5" y="-83.3" font-family="Times,serif" font-size="14.00" fill="#000000">external_avatar :character varying</text>
<text text-anchor="start" x="205.5" y="-68.3" font-family="Times,serif" font-size="14.00" fill="#000000">avatar :character varying</text>
<text text-anchor="start" x="205.5" y="-53.3" font-family="Times,serif" font-size="14.00" fill="#000000">language :character varying</text>
<text text-anchor="start" x="205.5" y="-38.3" font-family="Times,serif" font-size="14.00" fill="#000000">bio :text</text>
<text text-anchor="start" x="205.5" y="-23.3" font-family="Times,serif" font-size="14.00" fill="#000000">gender :character varying</text>
<text text-anchor="start" x="205.5" y="-8.3" font-family="Times,serif" font-size="14.00" fill="#000000">certifications :character varying</text>
</g>
<!-- Call&#45;&gt;User -->
<g id="edge1" class="edge">
<title>Call&#45;&gt;User</title>
<path fill="none" stroke="#381892" d="M318.8458,-328.5373C318.1559,-325.6776 317.5363,-322.8269 317,-320 315.5798,-312.5143 314.764,-304.8569 314.4504,-297.1279"/>
<polygon fill="#381892" stroke="#381892" points="318.8657,-328.6121 317.0959,-339.4343 320.1548,-333.4431 321.4438,-338.2741 321.4438,-338.2741 321.4438,-338.2741 320.1548,-333.4431 325.7917,-337.1139 318.8657,-328.6121 318.8657,-328.6121"/>
<polygon fill="#381892" stroke="#381892" points="314.448,-296.9339 318.8187,-286.8766 314.3835,-291.9343 314.319,-286.9347 314.319,-286.9347 314.319,-286.9347 314.3835,-291.9343 309.8194,-286.9927 314.448,-296.9339 314.448,-296.9339"/>
<text text-anchor="middle" x="343.5" y="-308.8" font-family="Times,serif" font-size="14.00" fill="#000000">recipients</text>
</g>
<!-- User&#45;&gt;Call -->
<g id="edge2" class="edge">
<title>User&#45;&gt;Call</title>
<path fill="none" stroke="#bd80f2" d="M371.1534,-296.5939C371.0151,-304.5089 370.6466,-312.3473 370,-320 369.7695,-322.7282 369.5019,-325.4962 369.2032,-328.2875"/>
<polygon fill="#bd80f2" stroke="#bd80f2" points="371.1536,-296.5352 375.7091,-286.5603 371.1814,-291.5353 371.2092,-286.5354 371.2092,-286.5354 371.2092,-286.5354 371.1814,-291.5353 366.7092,-286.5104 371.1536,-296.5352 371.1536,-296.5352"/>
<polygon fill="#bd80f2" stroke="#bd80f2" points="369.1737,-328.5365 363.5263,-337.9363 368.5843,-333.5016 367.9949,-338.4667 367.9949,-338.4667 367.9949,-338.4667 368.5843,-333.5016 372.4636,-338.9972 369.1737,-328.5365 369.1737,-328.5365"/>
<text text-anchor="middle" x="409" y="-308.8" font-family="Times,serif" font-size="14.00" fill="#000000">received_calls</text>
</g>
<!-- ApplicationRecord -->
<g id="node4" class="node">
<title>ApplicationRecord</title>
<ellipse fill="none" stroke="#000000" cx="571" cy="-414" rx="77.1866" ry="18"/>
<text text-anchor="middle" x="571" y="-410.3" font-family="Times,serif" font-size="14.00" fill="#000000">ApplicationRecord</text>
</g>
</g>
</svg>
