<?xml version="1.0" encoding="UTF-8" standalone="no"?>
<!DOCTYPE svg PUBLIC "-//W3C//DTD SVG 1.1//EN"
 "http://www.w3.org/Graphics/SVG/1.1/DTD/svg11.dtd">
<!-- Generated by graphviz version 2.40.1 (20161225.0304)
 -->
<!-- Title: models_diagram Pages: 1 -->
<svg width="656pt" height="537pt"
 viewBox="0.00 0.00 656.34 537.00" xmlns="http://www.w3.org/2000/svg" xmlns:xlink="http://www.w3.org/1999/xlink">
<g id="graph0" class="graph" transform="scale(1 1) rotate(0) translate(4 533)">
<title>models_diagram</title>
<polygon fill="transparent" stroke="transparent" points="-4,4 -4,-533 652.3431,-533 652.3431,4 -4,4"/>
<!-- _diagram_info -->
<g id="node1" class="node">
<title>_diagram_info</title>
<text text-anchor="start" x="8" y="-477.6" font-family="Times,serif" font-size="13.00" fill="#000000">Models diagram</text>
<text text-anchor="start" x="8" y="-463.6" font-family="Times,serif" font-size="13.00" fill="#000000">Date: Nov 29 2018 &#45; 12:01</text>
<text text-anchor="start" x="8" y="-449.6" font-family="Times,serif" font-size="13.00" fill="#000000">Migration version: 20181129032651</text>
<text text-anchor="start" x="8" y="-435.6" font-family="Times,serif" font-size="13.00" fill="#000000">Generated by RailRoady 1.5.3</text>
<text text-anchor="start" x="8" y="-421.6" font-family="Times,serif" font-size="13.00" fill="#000000">http://railroady.prestonlee.com</text>
</g>
<!-- Call -->
<g id="node2" class="node">
<title>Call</title>
<path fill="none" stroke="#000000" d="M244,-377.5C244,-377.5 464,-377.5 464,-377.5 470,-377.5 476,-383.5 476,-389.5 476,-389.5 476,-516.5 476,-516.5 476,-522.5 470,-528.5 464,-528.5 464,-528.5 244,-528.5 244,-528.5 238,-528.5 232,-522.5 232,-516.5 232,-516.5 232,-389.5 232,-389.5 232,-383.5 238,-377.5 244,-377.5"/>
<text text-anchor="middle" x="354" y="-513.3" font-family="Times,serif" font-size="14.00" fill="#000000">Call</text>
<polyline fill="none" stroke="#000000" points="232,-505.5 476,-505.5 "/>
<text text-anchor="start" x="240" y="-490.3" font-family="Times,serif" font-size="14.00" fill="#000000">id :bigint</text>
<text text-anchor="start" x="240" y="-475.3" font-family="Times,serif" font-size="14.00" fill="#000000">start_time :timestamp without time zone</text>
<text text-anchor="start" x="240" y="-460.3" font-family="Times,serif" font-size="14.00" fill="#000000">end_time :timestamp without time zone</text>
<text text-anchor="start" x="240" y="-445.3" font-family="Times,serif" font-size="14.00" fill="#000000">created_at :timestamp without time zone</text>
<text text-anchor="start" x="240" y="-430.3" font-family="Times,serif" font-size="14.00" fill="#000000">updated_at :timestamp without time zone</text>
<text text-anchor="start" x="240" y="-415.3" font-family="Times,serif" font-size="14.00" fill="#000000">sender_id :bigint</text>
<text text-anchor="start" x="240" y="-400.3" font-family="Times,serif" font-size="14.00" fill="#000000">room_name :character varying</text>
<text text-anchor="start" x="240" y="-385.3" font-family="Times,serif" font-size="14.00" fill="#000000">twilio_sid :character varying</text>
</g>
<!-- User -->
<g id="node3" class="node">
<title>User</title>
<path fill="none" stroke="#000000" d="M133.5,-159.5C133.5,-159.5 422.5,-159.5 422.5,-159.5 428.5,-159.5 434.5,-165.5 434.5,-171.5 434.5,-171.5 434.5,-313.5 434.5,-313.5 434.5,-319.5 428.5,-325.5 422.5,-325.5 422.5,-325.5 133.5,-325.5 133.5,-325.5 127.5,-325.5 121.5,-319.5 121.5,-313.5 121.5,-313.5 121.5,-171.5 121.5,-171.5 121.5,-165.5 127.5,-159.5 133.5,-159.5"/>
<text text-anchor="middle" x="278" y="-310.3" font-family="Times,serif" font-size="14.00" fill="#000000">User</text>
<polyline fill="none" stroke="#000000" points="121.5,-302.5 434.5,-302.5 "/>
<text text-anchor="start" x="129.5" y="-287.3" font-family="Times,serif" font-size="14.00" fill="#000000">id :bigint</text>
<text text-anchor="start" x="129.5" y="-272.3" font-family="Times,serif" font-size="14.00" fill="#000000">email :character varying</text>
<text text-anchor="start" x="129.5" y="-257.3" font-family="Times,serif" font-size="14.00" fill="#000000">encrypted_password :character varying</text>
<text text-anchor="start" x="129.5" y="-242.3" font-family="Times,serif" font-size="14.00" fill="#000000">reset_password_token :character varying</text>
<text text-anchor="start" x="129.5" y="-227.3" font-family="Times,serif" font-size="14.00" fill="#000000">reset_password_sent_at :timestamp without time zone</text>
<text text-anchor="start" x="129.5" y="-212.3" font-family="Times,serif" font-size="14.00" fill="#000000">remember_created_at :timestamp without time zone</text>
<text text-anchor="start" x="129.5" y="-197.3" font-family="Times,serif" font-size="14.00" fill="#000000">created_at :timestamp without time zone</text>
<text text-anchor="start" x="129.5" y="-182.3" font-family="Times,serif" font-size="14.00" fill="#000000">updated_at :timestamp without time zone</text>
<text text-anchor="start" x="129.5" y="-167.3" font-family="Times,serif" font-size="14.00" fill="#000000">last_seen :timestamp without time zone</text>
</g>
<!-- Call&#45;&gt;User -->
<g id="edge2" class="edge">
<title>Call&#45;&gt;User</title>
<path fill="none" stroke="#018021" d="M282.7224,-368.2114C281.348,-365.1722 280.0997,-362.0988 279,-359 276.384,-351.6285 274.5356,-343.8256 273.2824,-335.8898"/>
<polygon fill="#018021" stroke="#018021" points="282.7487,-368.2644 283.1723,-379.2221 284.9751,-372.7414 287.2015,-377.2183 287.2015,-377.2183 287.2015,-377.2183 284.9751,-372.7414 291.2308,-375.2146 282.7487,-368.2644 282.7487,-368.2644"/>
<polygon fill="#018021" stroke="#018021" points="273.2597,-335.7097 276.4648,-325.2227 272.6301,-330.7495 272.0006,-325.7893 272.0006,-325.7893 272.0006,-325.7893 272.6301,-330.7495 267.5364,-326.3559 273.2597,-335.7097 273.2597,-335.7097"/>
<text text-anchor="middle" x="305.5" y="-347.8" font-family="Times,serif" font-size="14.00" fill="#000000">recipients</text>
</g>
<!-- CallRecipient -->
<g id="node6" class="node">
<title>CallRecipient</title>
<ellipse fill="none" stroke="#000000" cx="512" cy="-242.5" rx="59.2899" ry="18"/>
<text text-anchor="middle" x="512" y="-238.8" font-family="Times,serif" font-size="14.00" fill="#000000">CallRecipient</text>
</g>
<!-- Call&#45;&gt;CallRecipient -->
<g id="edge1" class="edge">
<title>Call&#45;&gt;CallRecipient</title>
<path fill="none" stroke="#68df21" d="M415.6806,-370.8243C443.0897,-334.3077 473.4243,-293.8936 492.5901,-268.3594"/>
<ellipse fill="none" stroke="#68df21" cx="413.2196" cy="-374.103" rx="4" ry="4"/>
<polygon fill="#68df21" stroke="#68df21" points="492.6382,-268.2953 502.2403,-262.9989 495.6397,-264.2964 498.6413,-260.2975 498.6413,-260.2975 498.6413,-260.2975 495.6397,-264.2964 495.0423,-257.5961 492.6382,-268.2953 492.6382,-268.2953"/>
</g>
<!-- User&#45;&gt;Call -->
<g id="edge4" class="edge">
<title>User&#45;&gt;Call</title>
<path fill="none" stroke="#730689" d="M328.4962,-334.7907C329.7332,-337.8718 330.906,-340.9465 332,-344 334.7082,-351.5585 337.1171,-359.5379 339.2524,-367.6021"/>
<polygon fill="#730689" stroke="#730689" points="328.4839,-334.7613 328.7547,-323.7987 326.5453,-330.1524 324.6067,-325.5435 324.6067,-325.5435 324.6067,-325.5435 326.5453,-330.1524 320.4587,-327.2882 328.4839,-334.7613 328.4839,-334.7613"/>
<polygon fill="#730689" stroke="#730689" points="339.2915,-367.7581 337.3583,-378.5522 340.5073,-372.608 341.7232,-377.458 341.7232,-377.458 341.7232,-377.458 340.5073,-372.608 346.0881,-376.3637 339.2915,-367.7581 339.2915,-367.7581"/>
<text text-anchor="middle" x="376" y="-347.8" font-family="Times,serif" font-size="14.00" fill="#000000">received_calls</text>
</g>
<!-- InterpreterProfile -->
<g id="node5" class="node">
<title>InterpreterProfile</title>
<path fill="none" stroke="#000000" d="M168,-.5C168,-.5 388,-.5 388,-.5 394,-.5 400,-6.5 400,-12.5 400,-12.5 400,-109.5 400,-109.5 400,-115.5 394,-121.5 388,-121.5 388,-121.5 168,-121.5 168,-121.5 162,-121.5 156,-115.5 156,-109.5 156,-109.5 156,-12.5 156,-12.5 156,-6.5 162,-.5 168,-.5"/>
<text text-anchor="middle" x="278" y="-106.3" font-family="Times,serif" font-size="14.00" fill="#000000">InterpreterProfile</text>
<polyline fill="none" stroke="#000000" points="156,-98.5 400,-98.5 "/>
<text text-anchor="start" x="164" y="-83.3" font-family="Times,serif" font-size="14.00" fill="#000000">id :bigint</text>
<text text-anchor="start" x="164" y="-68.3" font-family="Times,serif" font-size="14.00" fill="#000000">bio :text</text>
<text text-anchor="start" x="164" y="-53.3" font-family="Times,serif" font-size="14.00" fill="#000000">gender :character varying</text>
<text text-anchor="start" x="164" y="-38.3" font-family="Times,serif" font-size="14.00" fill="#000000">created_at :timestamp without time zone</text>
<text text-anchor="start" x="164" y="-23.3" font-family="Times,serif" font-size="14.00" fill="#000000">updated_at :timestamp without time zone</text>
<text text-anchor="start" x="164" y="-8.3" font-family="Times,serif" font-size="14.00" fill="#000000">user_id :bigint</text>
</g>
<!-- User&#45;&gt;InterpreterProfile -->
<g id="edge3" class="edge">
<title>User&#45;&gt;InterpreterProfile</title>
<path fill="none" stroke="#d294b8" d="M278,-151.4011C278,-144.1784 278,-136.9586 278,-129.9248"/>
<ellipse fill="none" stroke="#d294b8" cx="278" cy="-155.452" rx="4" ry="4"/>
<ellipse fill="#d294b8" stroke="#d294b8" cx="278" cy="-125.7642" rx="4" ry="4"/>
</g>
<!-- ApplicationRecord -->
<g id="node4" class="node">
<title>ApplicationRecord</title>
<ellipse fill="none" stroke="#000000" cx="571" cy="-453" rx="77.1866" ry="18"/>
<text text-anchor="middle" x="571" y="-449.3" font-family="Times,serif" font-size="14.00" fill="#000000">ApplicationRecord</text>
</g>
</g>
</svg>
