<?xml version="1.0" encoding="UTF-8" standalone="no"?>
<!DOCTYPE svg PUBLIC "-//W3C//DTD SVG 1.1//EN"
 "http://www.w3.org/Graphics/SVG/1.1/DTD/svg11.dtd">
<!-- Generated by graphviz version 2.40.1 (20161225.0304)
 -->
<!-- Title: models_diagram Pages: 1 -->
<svg width="466pt" height="246pt"
 viewBox="0.00 0.00 466.34 246.00" xmlns="http://www.w3.org/2000/svg" xmlns:xlink="http://www.w3.org/1999/xlink">
<g id="graph0" class="graph" transform="scale(1 1) rotate(0) translate(4 242)">
<title>models_diagram</title>
<polygon fill="transparent" stroke="transparent" points="-4,4 -4,-242 462.3431,-242 462.3431,4 -4,4"/>
<!-- _diagram_info -->
<g id="node1" class="node">
<title>_diagram_info</title>
<text text-anchor="start" x="8" y="-223.6" font-family="Times,serif" font-size="13.00" fill="#000000">Models diagram</text>
<text text-anchor="start" x="8" y="-209.6" font-family="Times,serif" font-size="13.00" fill="#000000">Date: Nov 29 2018 &#45; 22:03</text>
<text text-anchor="start" x="8" y="-195.6" font-family="Times,serif" font-size="13.00" fill="#000000">Migration version: 20181129072629</text>
<text text-anchor="start" x="8" y="-181.6" font-family="Times,serif" font-size="13.00" fill="#000000">Generated by RailRoady 1.5.3</text>
<text text-anchor="start" x="8" y="-167.6" font-family="Times,serif" font-size="13.00" fill="#000000">http://railroady.prestonlee.com</text>
</g>
<!-- Call -->
<g id="node2" class="node">
<title>Call</title>
<ellipse fill="none" stroke="#000000" cx="259" cy="-199" rx="27" ry="18"/>
<text text-anchor="middle" x="259" y="-195.3" font-family="Times,serif" font-size="14.00" fill="#000000">Call</text>
</g>
<!-- User -->
<g id="node3" class="node">
<title>User</title>
<ellipse fill="none" stroke="#000000" cx="259" cy="-91" rx="27.0966" ry="18"/>
<text text-anchor="middle" x="259" y="-87.3" font-family="Times,serif" font-size="14.00" fill="#000000">User</text>
</g>
<!-- Call&#45;&gt;User -->
<g id="edge1" class="edge">
<title>Call&#45;&gt;User</title>
<path fill="none" stroke="#916e50" d="M239.0667,-175.0558C232.2595,-165.4059 225.4878,-153.779 222,-142 220.1072,-135.6077 219.4067,-133.1416 222,-127 224.4122,-121.2875 228.223,-116.0333 232.5004,-111.4068"/>
<polygon fill="#916e50" stroke="#916e50" points="239.2488,-175.2994 241.6304,-186.0036 242.2419,-179.3046 245.235,-183.3098 245.235,-183.3098 245.235,-183.3098 242.2419,-179.3046 248.8397,-180.616 239.2488,-175.2994 239.2488,-175.2994"/>
<polygon fill="#916e50" stroke="#916e50" points="232.7551,-111.1627 243.0885,-107.4923 236.3649,-107.7031 239.9748,-104.2434 239.9748,-104.2434 239.9748,-104.2434 236.3649,-107.7031 236.8611,-100.9946 232.7551,-111.1627 232.7551,-111.1627"/>
<text text-anchor="middle" x="248.5" y="-130.8" font-family="Times,serif" font-size="14.00" fill="#000000">recipients</text>
</g>
<!-- User&#45;&gt;Call -->
<g id="edge3" class="edge">
<title>User&#45;&gt;Call</title>
<path fill="none" stroke="#41bc92" d="M272.2816,-117.6176C273.3915,-120.7203 274.3398,-123.8889 275,-127 278.1562,-141.8726 274.9428,-158.4376 270.5894,-171.9257"/>
<polygon fill="#41bc92" stroke="#41bc92" points="272.1604,-117.3242 272.4989,-106.3635 270.2503,-112.7034 268.3402,-108.0826 268.3402,-108.0826 268.3402,-108.0826 270.2503,-112.7034 264.1815,-109.8017 272.1604,-117.3242 272.1604,-117.3242"/>
<polygon fill="#41bc92" stroke="#41bc92" points="270.5084,-172.1512 262.8901,-180.0388 268.8165,-176.8563 267.1247,-181.5614 267.1247,-181.5614 267.1247,-181.5614 268.8165,-176.8563 271.3593,-183.0841 270.5084,-172.1512 270.5084,-172.1512"/>
<text text-anchor="middle" x="315" y="-130.8" font-family="Times,serif" font-size="14.00" fill="#000000">received_calls</text>
</g>
<!-- InterpreterProfile -->
<g id="node5" class="node">
<title>InterpreterProfile</title>
<ellipse fill="none" stroke="#000000" cx="259" cy="-18" rx="71.4873" ry="18"/>
<text text-anchor="middle" x="259" y="-14.3" font-family="Times,serif" font-size="14.00" fill="#000000">InterpreterProfile</text>
</g>
<!-- User&#45;&gt;InterpreterProfile -->
<g id="edge2" class="edge">
<title>User&#45;&gt;InterpreterProfile</title>
<path fill="none" stroke="#37fc28" d="M259,-64.9079C259,-58.1971 259,-50.9741 259,-44.2551"/>
<ellipse fill="none" stroke="#37fc28" cx="259" cy="-68.9551" rx="4" ry="4"/>
<ellipse fill="#37fc28" stroke="#37fc28" cx="259" cy="-40.0904" rx="4" ry="4"/>
</g>
<!-- ApplicationRecord -->
<g id="node4" class="node">
<title>ApplicationRecord</title>
<ellipse fill="none" stroke="#000000" cx="381" cy="-199" rx="77.1866" ry="18"/>
<text text-anchor="middle" x="381" y="-195.3" font-family="Times,serif" font-size="14.00" fill="#000000">ApplicationRecord</text>
</g>
</g>
</svg>
