<?xml version="1.0" encoding="UTF-8" standalone="no"?>
<!DOCTYPE svg PUBLIC "-//W3C//DTD SVG 1.1//EN"
 "http://www.w3.org/Graphics/SVG/1.1/DTD/svg11.dtd">
<!-- Generated by graphviz version 2.40.1 (20161225.0304)
 -->
<!-- Title: models_diagram Pages: 1 -->
<svg width="466pt" height="173pt"
 viewBox="0.00 0.00 466.34 173.00" xmlns="http://www.w3.org/2000/svg" xmlns:xlink="http://www.w3.org/1999/xlink">
<g id="graph0" class="graph" transform="scale(1 1) rotate(0) translate(4 169)">
<title>models_diagram</title>
<polygon fill="transparent" stroke="transparent" points="-4,4 -4,-169 462.3431,-169 462.3431,4 -4,4"/>
<!-- _diagram_info -->
<g id="node1" class="node">
<title>_diagram_info</title>
<text text-anchor="start" x="8" y="-150.6" font-family="Times,serif" font-size="13.00" fill="#000000">Models diagram</text>
<text text-anchor="start" x="8" y="-136.6" font-family="Times,serif" font-size="13.00" fill="#000000">Date: Dec 05 2018 &#45; 11:05</text>
<text text-anchor="start" x="8" y="-122.6" font-family="Times,serif" font-size="13.00" fill="#000000">Migration version: 20181203090418</text>
<text text-anchor="start" x="8" y="-108.6" font-family="Times,serif" font-size="13.00" fill="#000000">Generated by RailRoady 1.5.3</text>
<text text-anchor="start" x="8" y="-94.6" font-family="Times,serif" font-size="13.00" fill="#000000">http://railroady.prestonlee.com</text>
</g>
<!-- Call -->
<g id="node2" class="node">
<title>Call</title>
<ellipse fill="none" stroke="#000000" cx="259" cy="-126" rx="27" ry="18"/>
<text text-anchor="middle" x="259" y="-122.3" font-family="Times,serif" font-size="14.00" fill="#000000">Call</text>
</g>
<!-- User -->
<g id="node3" class="node">
<title>User</title>
<ellipse fill="none" stroke="#000000" cx="259" cy="-18" rx="27.0966" ry="18"/>
<text text-anchor="middle" x="259" y="-14.3" font-family="Times,serif" font-size="14.00" fill="#000000">User</text>
</g>
<!-- Call&#45;&gt;User -->
<g id="edge1" class="edge">
<title>Call&#45;&gt;User</title>
<path fill="none" stroke="#e45198" d="M239.0667,-102.0558C232.2595,-92.4059 225.4878,-80.779 222,-69 220.1072,-62.6077 219.4067,-60.1416 222,-54 224.4122,-48.2875 228.223,-43.0333 232.5004,-38.4068"/>
<polygon fill="#e45198" stroke="#e45198" points="239.2488,-102.2994 241.6304,-113.0036 242.2419,-106.3046 245.235,-110.3098 245.235,-110.3098 245.235,-110.3098 242.2419,-106.3046 248.8397,-107.616 239.2488,-102.2994 239.2488,-102.2994"/>
<polygon fill="#e45198" stroke="#e45198" points="232.7551,-38.1627 243.0885,-34.4923 236.3649,-34.7031 239.9748,-31.2434 239.9748,-31.2434 239.9748,-31.2434 236.3649,-34.7031 236.8611,-27.9946 232.7551,-38.1627 232.7551,-38.1627"/>
<text text-anchor="middle" x="248.5" y="-57.8" font-family="Times,serif" font-size="14.00" fill="#000000">recipients</text>
</g>
<!-- User&#45;&gt;Call -->
<g id="edge2" class="edge">
<title>User&#45;&gt;Call</title>
<path fill="none" stroke="#49d7fa" d="M272.2816,-44.6176C273.3915,-47.7203 274.3398,-50.8889 275,-54 278.1562,-68.8726 274.9428,-85.4376 270.5894,-98.9257"/>
<polygon fill="#49d7fa" stroke="#49d7fa" points="272.1604,-44.3242 272.4989,-33.3635 270.2503,-39.7034 268.3402,-35.0826 268.3402,-35.0826 268.3402,-35.0826 270.2503,-39.7034 264.1815,-36.8017 272.1604,-44.3242 272.1604,-44.3242"/>
<polygon fill="#49d7fa" stroke="#49d7fa" points="270.5084,-99.1512 262.8901,-107.0388 268.8165,-103.8563 267.1247,-108.5614 267.1247,-108.5614 267.1247,-108.5614 268.8165,-103.8563 271.3593,-110.0841 270.5084,-99.1512 270.5084,-99.1512"/>
<text text-anchor="middle" x="315" y="-57.8" font-family="Times,serif" font-size="14.00" fill="#000000">received_calls</text>
</g>
<!-- ApplicationRecord -->
<g id="node4" class="node">
<title>ApplicationRecord</title>
<ellipse fill="none" stroke="#000000" cx="381" cy="-126" rx="77.1866" ry="18"/>
<text text-anchor="middle" x="381" y="-122.3" font-family="Times,serif" font-size="14.00" fill="#000000">ApplicationRecord</text>
</g>
</g>
</svg>
