<?xml version="1.0" encoding="UTF-8" standalone="no"?>
<!DOCTYPE svg PUBLIC "-//W3C//DTD SVG 1.1//EN"
 "http://www.w3.org/Graphics/SVG/1.1/DTD/svg11.dtd">
<!-- Generated by graphviz version 2.40.1 (20161225.0304)
 -->
<!-- Title: models_diagram Pages: 1 -->
<svg width="656pt" height="567pt"
 viewBox="0.00 0.00 656.34 567.00" xmlns="http://www.w3.org/2000/svg" xmlns:xlink="http://www.w3.org/1999/xlink">
<g id="graph0" class="graph" transform="scale(1 1) rotate(0) translate(4 563)">
<title>models_diagram</title>
<polygon fill="transparent" stroke="transparent" points="-4,4 -4,-563 652.3431,-563 652.3431,4 -4,4"/>
<!-- _diagram_info -->
<g id="node1" class="node">
<title>_diagram_info</title>
<text text-anchor="start" x="8" y="-507.6" font-family="Times,serif" font-size="13.00" fill="#000000">Models diagram</text>
<text text-anchor="start" x="8" y="-493.6" font-family="Times,serif" font-size="13.00" fill="#000000">Date: Nov 29 2018 &#45; 18:21</text>
<text text-anchor="start" x="8" y="-479.6" font-family="Times,serif" font-size="13.00" fill="#000000">Migration version: 20181129041509</text>
<text text-anchor="start" x="8" y="-465.6" font-family="Times,serif" font-size="13.00" fill="#000000">Generated by RailRoady 1.5.3</text>
<text text-anchor="start" x="8" y="-451.6" font-family="Times,serif" font-size="13.00" fill="#000000">http://railroady.prestonlee.com</text>
</g>
<!-- Call -->
<g id="node2" class="node">
<title>Call</title>
<path fill="none" stroke="#000000" d="M244,-407.5C244,-407.5 464,-407.5 464,-407.5 470,-407.5 476,-413.5 476,-419.5 476,-419.5 476,-546.5 476,-546.5 476,-552.5 470,-558.5 464,-558.5 464,-558.5 244,-558.5 244,-558.5 238,-558.5 232,-552.5 232,-546.5 232,-546.5 232,-419.5 232,-419.5 232,-413.5 238,-407.5 244,-407.5"/>
<text text-anchor="middle" x="354" y="-543.3" font-family="Times,serif" font-size="14.00" fill="#000000">Call</text>
<polyline fill="none" stroke="#000000" points="232,-535.5 476,-535.5 "/>
<text text-anchor="start" x="240" y="-520.3" font-family="Times,serif" font-size="14.00" fill="#000000">id :bigint</text>
<text text-anchor="start" x="240" y="-505.3" font-family="Times,serif" font-size="14.00" fill="#000000">start_time :timestamp without time zone</text>
<text text-anchor="start" x="240" y="-490.3" font-family="Times,serif" font-size="14.00" fill="#000000">end_time :timestamp without time zone</text>
<text text-anchor="start" x="240" y="-475.3" font-family="Times,serif" font-size="14.00" fill="#000000">created_at :timestamp without time zone</text>
<text text-anchor="start" x="240" y="-460.3" font-family="Times,serif" font-size="14.00" fill="#000000">updated_at :timestamp without time zone</text>
<text text-anchor="start" x="240" y="-445.3" font-family="Times,serif" font-size="14.00" fill="#000000">sender_id :bigint</text>
<text text-anchor="start" x="240" y="-430.3" font-family="Times,serif" font-size="14.00" fill="#000000">room_name :character varying</text>
<text text-anchor="start" x="240" y="-415.3" font-family="Times,serif" font-size="14.00" fill="#000000">twilio_sid :character varying</text>
</g>
<!-- User -->
<g id="node3" class="node">
<title>User</title>
<path fill="none" stroke="#000000" d="M133.5,-159.5C133.5,-159.5 422.5,-159.5 422.5,-159.5 428.5,-159.5 434.5,-165.5 434.5,-171.5 434.5,-171.5 434.5,-343.5 434.5,-343.5 434.5,-349.5 428.5,-355.5 422.5,-355.5 422.5,-355.5 133.5,-355.5 133.5,-355.5 127.5,-355.5 121.5,-349.5 121.5,-343.5 121.5,-343.5 121.5,-171.5 121.5,-171.5 121.5,-165.5 127.5,-159.5 133.5,-159.5"/>
<text text-anchor="middle" x="278" y="-340.3" font-family="Times,serif" font-size="14.00" fill="#000000">User</text>
<polyline fill="none" stroke="#000000" points="121.5,-332.5 434.5,-332.5 "/>
<text text-anchor="start" x="129.5" y="-317.3" font-family="Times,serif" font-size="14.00" fill="#000000">id :bigint</text>
<text text-anchor="start" x="129.5" y="-302.3" font-family="Times,serif" font-size="14.00" fill="#000000">email :character varying</text>
<text text-anchor="start" x="129.5" y="-287.3" font-family="Times,serif" font-size="14.00" fill="#000000">encrypted_password :character varying</text>
<text text-anchor="start" x="129.5" y="-272.3" font-family="Times,serif" font-size="14.00" fill="#000000">reset_password_token :character varying</text>
<text text-anchor="start" x="129.5" y="-257.3" font-family="Times,serif" font-size="14.00" fill="#000000">reset_password_sent_at :timestamp without time zone</text>
<text text-anchor="start" x="129.5" y="-242.3" font-family="Times,serif" font-size="14.00" fill="#000000">remember_created_at :timestamp without time zone</text>
<text text-anchor="start" x="129.5" y="-227.3" font-family="Times,serif" font-size="14.00" fill="#000000">created_at :timestamp without time zone</text>
<text text-anchor="start" x="129.5" y="-212.3" font-family="Times,serif" font-size="14.00" fill="#000000">updated_at :timestamp without time zone</text>
<text text-anchor="start" x="129.5" y="-197.3" font-family="Times,serif" font-size="14.00" fill="#000000">last_seen :timestamp without time zone</text>
<text text-anchor="start" x="129.5" y="-182.3" font-family="Times,serif" font-size="14.00" fill="#000000">interpreter :boolean</text>
<text text-anchor="start" x="129.5" y="-167.3" font-family="Times,serif" font-size="14.00" fill="#000000">name :character varying</text>
</g>
<!-- Call&#45;&gt;User -->
<g id="edge2" class="edge">
<title>Call&#45;&gt;User</title>
<path fill="none" stroke="#9e45ab" d="M282.7184,-398.2129C281.3451,-395.1732 280.0982,-392.0994 279,-389 276.373,-381.5858 274.4349,-373.7855 273.048,-365.8373"/>
<polygon fill="#9e45ab" stroke="#9e45ab" points="282.7445,-398.2655 283.1646,-409.2233 284.9695,-402.7432 287.1945,-407.2208 287.1945,-407.2208 287.1945,-407.2208 284.9695,-402.7432 291.2244,-405.2183 282.7445,-398.2655 282.7445,-398.2655"/>
<polygon fill="#9e45ab" stroke="#9e45ab" points="273.0142,-365.6043 276.0288,-355.0609 272.2949,-360.6563 271.5756,-355.7083 271.5756,-355.7083 271.5756,-355.7083 272.2949,-360.6563 267.1224,-356.3557 273.0142,-365.6043 273.0142,-365.6043"/>
<text text-anchor="middle" x="305.5" y="-377.8" font-family="Times,serif" font-size="14.00" fill="#000000">recipients</text>
</g>
<!-- CallRecipient -->
<g id="node6" class="node">
<title>CallRecipient</title>
<ellipse fill="none" stroke="#000000" cx="512" cy="-257.5" rx="59.2899" ry="18"/>
<text text-anchor="middle" x="512" y="-253.8" font-family="Times,serif" font-size="14.00" fill="#000000">CallRecipient</text>
</g>
<!-- Call&#45;&gt;CallRecipient -->
<g id="edge1" class="edge">
<title>Call&#45;&gt;CallRecipient</title>
<path fill="none" stroke="#4c8558" d="M412.7079,-400.4685C423.1616,-385.684 433.926,-370.4024 444,-356 461.1189,-331.5258 480.4503,-303.4841 494.1134,-283.5956"/>
<ellipse fill="none" stroke="#4c8558" cx="410.2406" cy="-403.956" rx="4" ry="4"/>
<polygon fill="#4c8558" stroke="#4c8558" points="494.1214,-283.584 503.4911,-277.8868 496.9513,-279.462 499.7812,-275.3399 499.7812,-275.3399 499.7812,-275.3399 496.9513,-279.462 496.0713,-272.7929 494.1214,-283.584 494.1214,-283.584"/>
</g>
<!-- User&#45;&gt;Call -->
<g id="edge4" class="edge">
<title>User&#45;&gt;Call</title>
<path fill="none" stroke="#a096ee" d="M328.9731,-365.1674C330.0301,-368.1276 331.0419,-371.0755 332,-374 334.4784,-381.5647 336.7291,-389.5205 338.7613,-397.545"/>
<polygon fill="#a096ee" stroke="#a096ee" points="328.9336,-365.0607 329.6737,-354.1198 327.1942,-360.373 325.4547,-355.6853 325.4547,-355.6853 325.4547,-355.6853 327.1942,-360.373 321.2358,-357.2507 328.9336,-365.0607 328.9336,-365.0607"/>
<polygon fill="#a096ee" stroke="#a096ee" points="338.7808,-397.6259 336.7584,-408.4037 339.9565,-402.4857 341.1322,-407.3455 341.1322,-407.3455 341.1322,-407.3455 339.9565,-402.4857 345.5061,-406.2874 338.7808,-397.6259 338.7808,-397.6259"/>
<text text-anchor="middle" x="376" y="-377.8" font-family="Times,serif" font-size="14.00" fill="#000000">received_calls</text>
</g>
<!-- InterpreterProfile -->
<g id="node5" class="node">
<title>InterpreterProfile</title>
<path fill="none" stroke="#000000" d="M168,-.5C168,-.5 388,-.5 388,-.5 394,-.5 400,-6.5 400,-12.5 400,-12.5 400,-109.5 400,-109.5 400,-115.5 394,-121.5 388,-121.5 388,-121.5 168,-121.5 168,-121.5 162,-121.5 156,-115.5 156,-109.5 156,-109.5 156,-12.5 156,-12.5 156,-6.5 162,-.5 168,-.5"/>
<text text-anchor="middle" x="278" y="-106.3" font-family="Times,serif" font-size="14.00" fill="#000000">InterpreterProfile</text>
<polyline fill="none" stroke="#000000" points="156,-98.5 400,-98.5 "/>
<text text-anchor="start" x="164" y="-83.3" font-family="Times,serif" font-size="14.00" fill="#000000">id :bigint</text>
<text text-anchor="start" x="164" y="-68.3" font-family="Times,serif" font-size="14.00" fill="#000000">bio :text</text>
<text text-anchor="start" x="164" y="-53.3" font-family="Times,serif" font-size="14.00" fill="#000000">gender :character varying</text>
<text text-anchor="start" x="164" y="-38.3" font-family="Times,serif" font-size="14.00" fill="#000000">created_at :timestamp without time zone</text>
<text text-anchor="start" x="164" y="-23.3" font-family="Times,serif" font-size="14.00" fill="#000000">updated_at :timestamp without time zone</text>
<text text-anchor="start" x="164" y="-8.3" font-family="Times,serif" font-size="14.00" fill="#000000">user_id :bigint</text>
</g>
<!-- User&#45;&gt;InterpreterProfile -->
<g id="edge3" class="edge">
<title>User&#45;&gt;InterpreterProfile</title>
<path fill="none" stroke="#505e4f" d="M278,-151.1222C278,-143.8528 278,-136.6431 278,-129.6538"/>
<ellipse fill="none" stroke="#505e4f" cx="278" cy="-155.25" rx="4" ry="4"/>
<ellipse fill="#505e4f" stroke="#505e4f" cx="278" cy="-125.5599" rx="4" ry="4"/>
</g>
<!-- ApplicationRecord -->
<g id="node4" class="node">
<title>ApplicationRecord</title>
<ellipse fill="none" stroke="#000000" cx="571" cy="-483" rx="77.1866" ry="18"/>
<text text-anchor="middle" x="571" y="-479.3" font-family="Times,serif" font-size="14.00" fill="#000000">ApplicationRecord</text>
</g>
</g>
</svg>
