<?xml version="1.0" encoding="UTF-8" standalone="no"?>
<!DOCTYPE svg PUBLIC "-//W3C//DTD SVG 1.1//EN"
 "http://www.w3.org/Graphics/SVG/1.1/DTD/svg11.dtd">
<!-- Generated by graphviz version 2.40.1 (20161225.0304)
 -->
<!-- Title: models_diagram Pages: 1 -->
<svg width="466pt" height="246pt"
 viewBox="0.00 0.00 466.34 246.00" xmlns="http://www.w3.org/2000/svg" xmlns:xlink="http://www.w3.org/1999/xlink">
<g id="graph0" class="graph" transform="scale(1 1) rotate(0) translate(4 242)">
<title>models_diagram</title>
<polygon fill="transparent" stroke="transparent" points="-4,4 -4,-242 462.3431,-242 462.3431,4 -4,4"/>
<!-- _diagram_info -->
<g id="node1" class="node">
<title>_diagram_info</title>
<text text-anchor="start" x="8" y="-223.6" font-family="Times,serif" font-size="13.00" fill="#000000">Models diagram</text>
<text text-anchor="start" x="8" y="-209.6" font-family="Times,serif" font-size="13.00" fill="#000000">Date: Nov 29 2018 &#45; 18:21</text>
<text text-anchor="start" x="8" y="-195.6" font-family="Times,serif" font-size="13.00" fill="#000000">Migration version: 20181129041509</text>
<text text-anchor="start" x="8" y="-181.6" font-family="Times,serif" font-size="13.00" fill="#000000">Generated by RailRoady 1.5.3</text>
<text text-anchor="start" x="8" y="-167.6" font-family="Times,serif" font-size="13.00" fill="#000000">http://railroady.prestonlee.com</text>
</g>
<!-- Call -->
<g id="node2" class="node">
<title>Call</title>
<ellipse fill="none" stroke="#000000" cx="259" cy="-199" rx="27" ry="18"/>
<text text-anchor="middle" x="259" y="-195.3" font-family="Times,serif" font-size="14.00" fill="#000000">Call</text>
</g>
<!-- User -->
<g id="node3" class="node">
<title>User</title>
<ellipse fill="none" stroke="#000000" cx="215" cy="-91" rx="27.0966" ry="18"/>
<text text-anchor="middle" x="215" y="-87.3" font-family="Times,serif" font-size="14.00" fill="#000000">User</text>
</g>
<!-- Call&#45;&gt;User -->
<g id="edge2" class="edge">
<title>Call&#45;&gt;User</title>
<path fill="none" stroke="#4b916d" d="M239.6651,-175.048C234.609,-169.6735 228.9077,-164.2974 223,-160 207.562,-148.7701 194.2889,-158.0805 184,-142 177.8048,-132.3175 182.8005,-121.4494 190.4514,-112.2416"/>
<polygon fill="#4b916d" stroke="#4b916d" points="239.9119,-175.3254 243.1987,-185.7871 243.2361,-179.0604 246.5602,-182.7954 246.5602,-182.7954 246.5602,-182.7954 243.2361,-179.0604 249.9217,-179.8037 239.9119,-175.3254 239.9119,-175.3254"/>
<polygon fill="#4b916d" stroke="#4b916d" points="190.456,-112.2367 200.5898,-108.0467 193.8856,-108.5984 197.3153,-104.96 197.3153,-104.96 197.3153,-104.96 193.8856,-108.5984 194.0408,-101.8733 190.456,-112.2367 190.456,-112.2367"/>
<text text-anchor="middle" x="210.5" y="-130.8" font-family="Times,serif" font-size="14.00" fill="#000000">recipients</text>
</g>
<!-- CallRecipient -->
<g id="node6" class="node">
<title>CallRecipient</title>
<ellipse fill="none" stroke="#000000" cx="352" cy="-91" rx="59.2899" ry="18"/>
<text text-anchor="middle" x="352" y="-87.3" font-family="Times,serif" font-size="14.00" fill="#000000">CallRecipient</text>
</g>
<!-- Call&#45;&gt;CallRecipient -->
<g id="edge1" class="edge">
<title>Call&#45;&gt;CallRecipient</title>
<path fill="none" stroke="#012f65" d="M277.5611,-176.6974C282.8877,-170.9288 288.9107,-164.9534 295,-160 307.0623,-150.1878 314.3032,-153.2852 325,-142 331.4397,-135.2061 336.7755,-126.5774 340.9552,-118.3585"/>
<ellipse fill="none" stroke="#012f65" cx="274.7517" cy="-179.8369" rx="4" ry="4"/>
<polygon fill="#012f65" stroke="#012f65" points="341.0824,-118.087 349.4021,-110.9433 343.2051,-113.56 345.3277,-109.0329 345.3277,-109.0329 345.3277,-109.0329 343.2051,-113.56 341.2534,-107.1225 341.0824,-118.087 341.0824,-118.087"/>
</g>
<!-- User&#45;&gt;Call -->
<g id="edge4" class="edge">
<title>User&#45;&gt;Call</title>
<path fill="none" stroke="#23af39" d="M231.6631,-116.5172C233.5985,-119.9697 235.4362,-123.522 237,-127 243.3642,-141.1542 248.5574,-157.6672 252.2969,-171.3061"/>
<polygon fill="#23af39" stroke="#23af39" points="231.5478,-116.3235 230.2992,-105.4289 228.9901,-112.0271 226.4325,-107.7308 226.4325,-107.7308 226.4325,-107.7308 228.9901,-112.0271 222.5658,-110.0327 231.5478,-116.3235 231.5478,-116.3235"/>
<polygon fill="#23af39" stroke="#23af39" points="252.3261,-171.4175 250.5162,-182.233 253.5972,-176.2532 254.8684,-181.0889 254.8684,-181.0889 254.8684,-181.0889 253.5972,-176.2532 259.2205,-179.9449 252.3261,-171.4175 252.3261,-171.4175"/>
<text text-anchor="middle" x="282" y="-130.8" font-family="Times,serif" font-size="14.00" fill="#000000">received_calls</text>
</g>
<!-- InterpreterProfile -->
<g id="node5" class="node">
<title>InterpreterProfile</title>
<ellipse fill="none" stroke="#000000" cx="215" cy="-18" rx="71.4873" ry="18"/>
<text text-anchor="middle" x="215" y="-14.3" font-family="Times,serif" font-size="14.00" fill="#000000">InterpreterProfile</text>
</g>
<!-- User&#45;&gt;InterpreterProfile -->
<g id="edge3" class="edge">
<title>User&#45;&gt;InterpreterProfile</title>
<path fill="none" stroke="#0b0b71" d="M215,-64.9079C215,-58.1971 215,-50.9741 215,-44.2551"/>
<ellipse fill="none" stroke="#0b0b71" cx="215" cy="-68.9551" rx="4" ry="4"/>
<ellipse fill="#0b0b71" stroke="#0b0b71" cx="215" cy="-40.0904" rx="4" ry="4"/>
</g>
<!-- ApplicationRecord -->
<g id="node4" class="node">
<title>ApplicationRecord</title>
<ellipse fill="none" stroke="#000000" cx="381" cy="-199" rx="77.1866" ry="18"/>
<text text-anchor="middle" x="381" y="-195.3" font-family="Times,serif" font-size="14.00" fill="#000000">ApplicationRecord</text>
</g>
</g>
</svg>
