<?xml version="1.0" encoding="UTF-8" standalone="no"?>
<!DOCTYPE svg PUBLIC "-//W3C//DTD SVG 1.1//EN"
 "http://www.w3.org/Graphics/SVG/1.1/DTD/svg11.dtd">
<!-- Generated by graphviz version 2.40.1 (20161225.0304)
 -->
<!-- Title: models_diagram Pages: 1 -->
<svg width="656pt" height="597pt"
 viewBox="0.00 0.00 656.34 597.00" xmlns="http://www.w3.org/2000/svg" xmlns:xlink="http://www.w3.org/1999/xlink">
<g id="graph0" class="graph" transform="scale(1 1) rotate(0) translate(4 593)">
<title>models_diagram</title>
<polygon fill="transparent" stroke="transparent" points="-4,4 -4,-593 652.3431,-593 652.3431,4 -4,4"/>
<!-- _diagram_info -->
<g id="node1" class="node">
<title>_diagram_info</title>
<text text-anchor="start" x="8" y="-537.6" font-family="Times,serif" font-size="13.00" fill="#000000">Models diagram</text>
<text text-anchor="start" x="8" y="-523.6" font-family="Times,serif" font-size="13.00" fill="#000000">Date: Nov 29 2018 &#45; 22:03</text>
<text text-anchor="start" x="8" y="-509.6" font-family="Times,serif" font-size="13.00" fill="#000000">Migration version: 20181129072629</text>
<text text-anchor="start" x="8" y="-495.6" font-family="Times,serif" font-size="13.00" fill="#000000">Generated by RailRoady 1.5.3</text>
<text text-anchor="start" x="8" y="-481.6" font-family="Times,serif" font-size="13.00" fill="#000000">http://railroady.prestonlee.com</text>
</g>
<!-- Call -->
<g id="node2" class="node">
<title>Call</title>
<path fill="none" stroke="#000000" d="M244,-437.5C244,-437.5 464,-437.5 464,-437.5 470,-437.5 476,-443.5 476,-449.5 476,-449.5 476,-576.5 476,-576.5 476,-582.5 470,-588.5 464,-588.5 464,-588.5 244,-588.5 244,-588.5 238,-588.5 232,-582.5 232,-576.5 232,-576.5 232,-449.5 232,-449.5 232,-443.5 238,-437.5 244,-437.5"/>
<text text-anchor="middle" x="354" y="-573.3" font-family="Times,serif" font-size="14.00" fill="#000000">Call</text>
<polyline fill="none" stroke="#000000" points="232,-565.5 476,-565.5 "/>
<text text-anchor="start" x="240" y="-550.3" font-family="Times,serif" font-size="14.00" fill="#000000">id :bigint</text>
<text text-anchor="start" x="240" y="-535.3" font-family="Times,serif" font-size="14.00" fill="#000000">start_time :timestamp without time zone</text>
<text text-anchor="start" x="240" y="-520.3" font-family="Times,serif" font-size="14.00" fill="#000000">end_time :timestamp without time zone</text>
<text text-anchor="start" x="240" y="-505.3" font-family="Times,serif" font-size="14.00" fill="#000000">created_at :timestamp without time zone</text>
<text text-anchor="start" x="240" y="-490.3" font-family="Times,serif" font-size="14.00" fill="#000000">updated_at :timestamp without time zone</text>
<text text-anchor="start" x="240" y="-475.3" font-family="Times,serif" font-size="14.00" fill="#000000">sender_id :bigint</text>
<text text-anchor="start" x="240" y="-460.3" font-family="Times,serif" font-size="14.00" fill="#000000">room_name :character varying</text>
<text text-anchor="start" x="240" y="-445.3" font-family="Times,serif" font-size="14.00" fill="#000000">twilio_sid :character varying</text>
</g>
<!-- User -->
<g id="node3" class="node">
<title>User</title>
<path fill="none" stroke="#000000" d="M209.5,-189.5C209.5,-189.5 498.5,-189.5 498.5,-189.5 504.5,-189.5 510.5,-195.5 510.5,-201.5 510.5,-201.5 510.5,-373.5 510.5,-373.5 510.5,-379.5 504.5,-385.5 498.5,-385.5 498.5,-385.5 209.5,-385.5 209.5,-385.5 203.5,-385.5 197.5,-379.5 197.5,-373.5 197.5,-373.5 197.5,-201.5 197.5,-201.5 197.5,-195.5 203.5,-189.5 209.5,-189.5"/>
<text text-anchor="middle" x="354" y="-370.3" font-family="Times,serif" font-size="14.00" fill="#000000">User</text>
<polyline fill="none" stroke="#000000" points="197.5,-362.5 510.5,-362.5 "/>
<text text-anchor="start" x="205.5" y="-347.3" font-family="Times,serif" font-size="14.00" fill="#000000">id :bigint</text>
<text text-anchor="start" x="205.5" y="-332.3" font-family="Times,serif" font-size="14.00" fill="#000000">email :character varying</text>
<text text-anchor="start" x="205.5" y="-317.3" font-family="Times,serif" font-size="14.00" fill="#000000">encrypted_password :character varying</text>
<text text-anchor="start" x="205.5" y="-302.3" font-family="Times,serif" font-size="14.00" fill="#000000">reset_password_token :character varying</text>
<text text-anchor="start" x="205.5" y="-287.3" font-family="Times,serif" font-size="14.00" fill="#000000">reset_password_sent_at :timestamp without time zone</text>
<text text-anchor="start" x="205.5" y="-272.3" font-family="Times,serif" font-size="14.00" fill="#000000">remember_created_at :timestamp without time zone</text>
<text text-anchor="start" x="205.5" y="-257.3" font-family="Times,serif" font-size="14.00" fill="#000000">created_at :timestamp without time zone</text>
<text text-anchor="start" x="205.5" y="-242.3" font-family="Times,serif" font-size="14.00" fill="#000000">updated_at :timestamp without time zone</text>
<text text-anchor="start" x="205.5" y="-227.3" font-family="Times,serif" font-size="14.00" fill="#000000">last_seen :timestamp without time zone</text>
<text text-anchor="start" x="205.5" y="-212.3" font-family="Times,serif" font-size="14.00" fill="#000000">interpreter :boolean</text>
<text text-anchor="start" x="205.5" y="-197.3" font-family="Times,serif" font-size="14.00" fill="#000000">name :character varying</text>
</g>
<!-- Call&#45;&gt;User -->
<g id="edge1" class="edge">
<title>Call&#45;&gt;User</title>
<path fill="none" stroke="#aa5bbd" d="M318.8458,-427.5373C318.1559,-424.6776 317.5363,-421.8269 317,-419 315.5707,-411.4664 315.0926,-403.7382 315.3483,-395.9847"/>
<polygon fill="#aa5bbd" stroke="#aa5bbd" points="318.8657,-427.6121 317.0959,-438.4343 320.1548,-432.4431 321.4438,-437.2741 321.4438,-437.2741 321.4438,-437.2741 320.1548,-432.4431 325.7917,-436.1139 318.8657,-427.6121 318.8657,-427.6121"/>
<polygon fill="#aa5bbd" stroke="#aa5bbd" points="315.3641,-395.7654 320.5769,-386.1177 315.7264,-390.7785 316.0887,-385.7916 316.0887,-385.7916 316.0887,-385.7916 315.7264,-390.7785 311.6006,-385.4656 315.3641,-395.7654 315.3641,-395.7654"/>
<text text-anchor="middle" x="343.5" y="-407.8" font-family="Times,serif" font-size="14.00" fill="#000000">recipients</text>
</g>
<!-- User&#45;&gt;Call -->
<g id="edge3" class="edge">
<title>User&#45;&gt;Call</title>
<path fill="none" stroke="#8db6da" d="M370.7291,-396.0212C370.8433,-403.791 370.6328,-411.5109 370,-419 369.7695,-421.7282 369.5019,-424.4962 369.2032,-427.2875"/>
<polygon fill="#8db6da" stroke="#8db6da" points="370.7217,-395.7883 374.8976,-385.6487 370.5608,-390.7909 370.3999,-385.7934 370.3999,-385.7934 370.3999,-385.7934 370.5608,-390.7909 365.9023,-385.9382 370.7217,-395.7883 370.7217,-395.7883"/>
<polygon fill="#8db6da" stroke="#8db6da" points="369.1737,-427.5365 363.5263,-436.9363 368.5843,-432.5016 367.9949,-437.4667 367.9949,-437.4667 367.9949,-437.4667 368.5843,-432.5016 372.4636,-437.9972 369.1737,-427.5365 369.1737,-427.5365"/>
<text text-anchor="middle" x="409" y="-407.8" font-family="Times,serif" font-size="14.00" fill="#000000">received_calls</text>
</g>
<!-- InterpreterProfile -->
<g id="node5" class="node">
<title>InterpreterProfile</title>
<path fill="none" stroke="#000000" d="M244,-.5C244,-.5 464,-.5 464,-.5 470,-.5 476,-6.5 476,-12.5 476,-12.5 476,-139.5 476,-139.5 476,-145.5 470,-151.5 464,-151.5 464,-151.5 244,-151.5 244,-151.5 238,-151.5 232,-145.5 232,-139.5 232,-139.5 232,-12.5 232,-12.5 232,-6.5 238,-.5 244,-.5"/>
<text text-anchor="middle" x="354" y="-136.3" font-family="Times,serif" font-size="14.00" fill="#000000">InterpreterProfile</text>
<polyline fill="none" stroke="#000000" points="232,-128.5 476,-128.5 "/>
<text text-anchor="start" x="240" y="-113.3" font-family="Times,serif" font-size="14.00" fill="#000000">id :bigint</text>
<text text-anchor="start" x="240" y="-98.3" font-family="Times,serif" font-size="14.00" fill="#000000">bio :text</text>
<text text-anchor="start" x="240" y="-83.3" font-family="Times,serif" font-size="14.00" fill="#000000">gender :character varying</text>
<text text-anchor="start" x="240" y="-68.3" font-family="Times,serif" font-size="14.00" fill="#000000">created_at :timestamp without time zone</text>
<text text-anchor="start" x="240" y="-53.3" font-family="Times,serif" font-size="14.00" fill="#000000">updated_at :timestamp without time zone</text>
<text text-anchor="start" x="240" y="-38.3" font-family="Times,serif" font-size="14.00" fill="#000000">user_id :bigint</text>
<text text-anchor="start" x="240" y="-23.3" font-family="Times,serif" font-size="14.00" fill="#000000">certifications :character varying</text>
<text text-anchor="start" x="240" y="-8.3" font-family="Times,serif" font-size="14.00" fill="#000000">language :character varying</text>
</g>
<!-- User&#45;&gt;InterpreterProfile -->
<g id="edge2" class="edge">
<title>User&#45;&gt;InterpreterProfile</title>
<path fill="none" stroke="#4e15cf" d="M354,-181.4073C354,-174.1588 354,-166.9123 354,-159.8042"/>
<ellipse fill="none" stroke="#4e15cf" cx="354" cy="-185.4892" rx="4" ry="4"/>
<ellipse fill="#4e15cf" stroke="#4e15cf" cx="354" cy="-155.5317" rx="4" ry="4"/>
</g>
<!-- ApplicationRecord -->
<g id="node4" class="node">
<title>ApplicationRecord</title>
<ellipse fill="none" stroke="#000000" cx="571" cy="-513" rx="77.1866" ry="18"/>
<text text-anchor="middle" x="571" y="-509.3" font-family="Times,serif" font-size="14.00" fill="#000000">ApplicationRecord</text>
</g>
</g>
</svg>
